<svg xmlns="http://www.w3.org/2000/svg" xmlns:xlink="http://www.w3.org/1999/xlink" width="1200px" height="1200px" viewBox="0 0 1200 1200">
    <g id="79190a45-1df7-4551-9067-ff7aebf3acbd">
<g style="">
		<g id="79190a45-1df7-4551-9067-ff7aebf3acbd-child-0">
<path style="stroke: rgb(193,193,193); stroke-opacity: 1.00; stroke-width: 0; stroke-dasharray: none; stroke-linecap: butt; stroke-dashoffset: 0; stroke-linejoin: miter; stroke-miterlimit: 4; fill: rgb(1,0,0); fill-opacity: 1.00; fill-rule: nonzero; opacity: 1;" transform="matrix(1.171875 0 0 1.171881 595.466698 613.26117) matrix(1 0 0 1 0 0)  translate(-508.131047, -523.316011)" d="M 647.50 748.40 C 644.75 747.62 636.65 746.10 629.50 745.01 C 622.35 743.92 608.40 741.48 598.50 739.60 C 572.99 734.74 568.02 734.55 534.41 737.13 C 506.17 739.31 505.05 739.32 496.41 737.63 C 491.51 736.67 485.63 734.79 483.33 733.45 C 477.75 730.19 472.39 723.85 468.77 716.22 C 465.78 709.94 465.78 709.94 466.27 695.22 C 466.53 687.12 467.25 678.91 467.86 676.97 C 469.65 671.28 497.83 639.83 507.97 632.21 C 517.96 624.70 529.27 619.03 540.94 615.68 L 549.39 613.25 L 543.79 611.63 C 540.71 610.73 537.28 610.00 536.17 610.00 C 532.30 610.00 509.50 603.82 504.32 601.37 C 497.66 598.22 489.50 590.89 486.78 585.61 C 484.01 580.21 483.85 571.24 486.42 564.50 C 490.52 553.72 507.79 524.11 515.72 514.25 C 519.74 509.25 519.34 508.98 513.68 512.87 C 507.57 517.06 492.31 524.53 486.06 526.39 C 475.66 529.48 465.41 527.71 453.85 520.84 L 446.89 516.71 L 441.45 518.01 C 437.03 519.07 435.21 519.08 431.75 518.05 C 422.77 515.37 416.86 505.05 418.95 495.71 C 420.24 489.96 425.72 474.48 428.18 469.65 C 429.26 467.54 429.86 465.52 429.51 465.18 C 429.17 464.84 426.78 465.37 424.19 466.35 C 412.48 470.84 409.97 471.31 404.33 470.05 C 399.05 468.87 393.69 464.98 391.29 460.60 C 390.30 458.79 390.01 458.85 384.88 461.81 C 381.92 463.52 376.80 466.96 373.50 469.47 C 362.14 478.10 348.83 479.37 336.72 472.98 C 333.30 471.17 325.87 467.35 320.21 464.49 C 314.55 461.63 308.52 457.99 306.82 456.40 C 302.91 452.73 298.00 445.17 298.00 442.80 C 298.00 438.41 296.32 441.76 294.27 450.25 C 292.52 457.44 291.01 460.96 287.41 466.24 C 284.87 469.96 281.52 474.07 279.96 475.38 L 277.14 477.75 L 280.94 479.25 C 283.49 480.25 286.11 482.59 288.89 486.36 C 291.22 489.50 294.10 492.24 295.45 492.58 C 296.78 492.91 300.32 492.47 303.33 491.59 C 310.87 489.40 315.09 489.59 319.10 492.29 C 326.28 497.12 326.25 506.42 319.02 513.48 C 316.81 515.64 315.00 518.33 315.00 519.46 C 315.00 520.58 316.60 523.75 318.56 526.50 C 321.55 530.70 322.08 532.23 321.88 536.05 C 321.52 542.93 322.37 543.44 327.79 539.59 C 330.38 537.75 333.62 535.90 335.00 535.48 C 336.38 535.07 339.45 533.39 341.83 531.76 C 351.66 525.03 362.55 523.50 368.34 528.05 C 369.70 529.12 371.07 530.00 371.37 530.00 C 371.68 530.00 374.08 528.63 376.72 526.97 C 391.66 517.49 411.21 516.56 426.08 524.63 C 435.54 529.77 442.88 538.10 448.86 550.50 C 455.73 564.73 457.41 571.32 456.67 581.00 C 456.05 589.12 457.98 606.47 460.64 616.67 C 464.59 631.78 457.67 641.88 444.15 640.76 C 439.52 640.38 437.56 640.78 432.52 643.14 C 421.53 648.28 412.35 647.88 405.60 641.96 C 401.98 638.77 401.00 638.38 401.00 640.10 C 401.00 642.60 396.38 647.39 392.17 649.25 C 388.83 650.73 385.57 651.23 379.58 651.19 C 372.50 651.14 370.87 651.49 366.41 653.99 C 355.99 659.82 348.46 660.09 342.50 654.87 L 339.23 652.00 L 337.67 654.39 C 333.81 660.27 326.05 662.74 309.34 663.39 C 301.50 663.69 296.84 664.42 292.50 666.01 C 287.20 667.94 285.90 668.07 281.41 667.06 C 277.91 666.28 275.37 664.92 273.27 662.71 C 266.32 655.39 264.99 648.31 265.76 622.79 C 266.37 602.40 265.31 593.64 260.78 581.52 C 257.11 571.69 256.84 565.03 259.87 558.77 C 261.91 554.56 261.94 554.10 260.47 550.57 C 259.50 548.26 259.02 544.68 259.20 541.22 L 259.50 535.61 L 254.78 534.25 C 239.88 529.98 239.26 512.86 253.83 508.06 C 260.34 505.91 262.67 502.64 263.26 494.85 C 263.53 491.19 264.45 486.81 265.30 485.10 L 266.85 482.00 L 263.17 481.96 C 260.60 481.93 251.50 479.63 251.50 479.02 C 251.50 479.02 251.48 482.04 251.44 485.75 C 251.40 491.42 250.86 493.50 248.07 498.73 C 242.68 508.82 240.14 510.18 218.50 514.52 C 211.35 515.95 198.75 519.33 190.50 522.03 C 182.25 524.73 165.85 529.26 154.06 532.10 C 128.52 538.24 124.58 538.28 107.56 532.59 C 101.66 530.61 95.86 529.00 94.67 528.99 C 85.10 528.97 77.33 522.21 73.95 510.98 C 72.71 506.87 70.18 500.03 68.33 495.79 C 63.37 484.45 60.32 469.23 59.04 449.50 C 58.43 440.15 57.25 427.14 56.41 420.60 C 54.72 407.34 55.01 402.92 58.65 386.00 C 60.32 378.26 62.77 370.90 66.13 363.50 C 80.87 331.10 81.97 329.55 94.91 323.04 C 104.25 318.35 112.67 315.87 130.50 312.56 C 137.65 311.23 151.38 308.33 161.00 306.12 C 190.57 299.33 195.67 298.56 202.13 299.91 C 208.43 301.23 213.06 304.06 224.00 313.27 C 235.66 323.08 238.16 330.38 234.50 344.00 C 233.69 347.02 233.02 351.98 233.01 355.00 L 233.00 360.50 L 237.99 360.15 C 244.53 359.70 250.57 362.61 256.28 368.97 L 260.61 373.78 L 262.95 368.68 C 266.56 360.82 274.47 353.50 281.62 351.42 C 286.63 349.95 288.31 349.88 293.00 350.90 C 296.02 351.57 301.42 352.58 305.00 353.17 C 313.10 354.49 318.13 356.99 321.47 361.38 L 324.06 364.77 L 329.28 361.99 C 334.58 359.16 350.96 353.08 358.82 351.02 C 365.71 349.21 373.29 351.35 378.84 356.67 L 383.30 360.94 L 386.62 358.03 C 389.68 355.34 395.35 353.04 399.00 352.99 C 399.83 352.98 403.15 351.63 406.39 349.99 C 412.62 346.83 420.27 346.01 425.39 347.96 C 427.51 348.76 428.75 348.36 433.06 345.46 C 446.89 336.15 458.18 337.18 474.50 349.21 C 483.90 356.14 489.13 368.45 486.23 376.78 L 485.20 379.74 L 490.85 380.36 C 493.96 380.70 497.51 381.27 498.75 381.61 C 500.33 382.05 501.00 381.80 501.00 380.80 C 501.00 378.78 507.39 371.54 511.27 369.15 C 513.05 368.06 516.16 366.86 518.19 366.48 C 522.16 365.75 522.19 365.68 523.48 355.89 C 524.21 350.30 527.95 344.26 532.68 341.02 C 535.54 339.05 537.48 338.61 543.36 338.56 L 550.55 338.50 L 549.62 333.99 C 548.10 326.52 549.56 320.44 553.91 316.09 C 556.88 313.12 560.20 311.43 569.53 308.12 C 583.71 303.09 587.61 302.45 595.50 303.90 C 604.77 305.61 610.27 310.93 611.54 319.45 C 612.11 323.25 610.19 333.17 607.56 340.00 C 607.10 341.20 608.00 341.53 612.10 341.65 L 617.21 341.81 L 616.36 335.15 C 615.89 331.49 615.50 325.04 615.50 320.82 C 615.51 312.51 616.74 309.78 622.36 305.58 C 624.71 303.83 627.16 303.45 639.92 302.91 C 648.07 302.56 655.24 301.97 655.85 301.59 C 657.95 300.30 665.42 303.16 668.53 306.46 C 670.96 309.04 672.06 311.72 673.80 319.30 C 676.82 332.47 676.73 343.96 673.50 356.40 C 672.12 361.70 671.00 366.17 671.00 366.34 C 671.00 366.52 673.53 366.46 676.62 366.20 C 685.64 365.45 691.98 367.42 700.72 373.69 C 709.44 379.94 712.57 381.56 709.76 378.35 C 707.10 375.31 706.52 368.30 708.49 363.00 C 710.15 358.54 710.97 356.40 710.52 354.58 C 710.07 352.81 708.42 351.36 705.15 348.39 C 695.99 340.11 694.68 332.21 701.31 325.24 C 704.79 321.58 709.25 320.01 716.20 320.01 C 723.56 320.00 725.24 318.71 729.58 309.77 C 733.63 301.44 736.30 298.62 741.58 297.12 C 745.66 295.95 751.83 298.08 754.69 301.66 C 756.97 304.49 758.95 314.17 758.72 321.32 C 758.58 325.74 759.31 326.37 767.00 328.48 C 774.85 330.64 779.12 333.23 781.19 337.10 C 785.13 344.44 782.49 350.79 772.95 356.95 C 769.62 359.11 766.43 361.02 765.87 361.21 C 765.27 361.41 765.14 362.70 765.56 364.38 C 766.22 367.01 766.54 367.17 769.89 366.59 C 784.08 364.12 793.48 365.10 798.28 369.56 C 800.88 371.97 800.98 371.98 806.67 370.50 C 814.04 368.58 819.29 368.60 826.07 370.59 C 836.73 373.72 848.73 382.35 854.03 390.70 L 856.71 394.93 L 857.94 392.24 C 863.11 380.89 871.53 375.43 889.32 371.91 L 900.14 369.77 L 912.50 373.85 L 915.00 371.55 C 920.51 366.50 923.02 365.55 930.92 365.54 C 941.62 365.52 948.10 367.97 954.63 374.50 C 961.08 380.95 961.68 383.94 960.13 401.78 C 958.71 418.17 958.39 440.68 959.39 454.00 C 960.09 463.35 959.90 465.70 957.67 475.50 C 956.29 481.55 954.41 490.33 953.50 495.00 C 950.85 508.55 949.12 513.59 945.01 519.74 C 939.65 527.77 926.61 541.56 921.62 544.48 C 909.52 551.58 872.82 554.22 857.00 549.14 C 848.07 546.27 837.83 538.31 831.74 529.49 C 829.12 525.70 824.79 520.56 822.11 518.05 C 815.85 512.20 813.70 507.89 813.60 500.99 C 813.51 494.06 817.37 485.71 823.05 480.57 L 827.04 476.97 L 823.25 477.58 C 818.62 478.32 808.67 475.87 804.87 473.06 L 802.12 471.03 L 797.05 473.67 C 791.61 476.48 789.39 476.68 773.50 475.71 C 764.01 475.13 760.46 474.18 756.02 471.01 C 753.69 469.35 752.75 469.23 749.40 470.16 C 747.10 470.79 743.04 470.94 739.50 470.53 C 736.20 470.14 732.38 469.87 731.00 469.93 C 729.62 469.99 723.78 470.24 718.00 470.49 C 712.22 470.74 703.45 471.23 698.50 471.58 C 681.56 472.77 674.74 472.54 671.22 470.67 C 667.96 468.93 667.91 468.94 663.72 471.87 C 661.40 473.50 657.19 475.30 654.36 475.88 C 645.33 477.73 620.80 473.72 618.51 470.02 C 618.27 469.62 615.46 470.22 612.28 471.36 C 603.94 474.34 587.23 474.28 577.38 471.23 C 569.43 468.76 559.76 462.77 555.01 457.36 C 553.29 455.40 551.75 453.95 551.61 454.14 C 551.46 454.34 549.65 461.02 547.59 469.00 C 545.11 478.57 542.52 485.97 539.96 490.76 L 536.08 498.01 L 539.02 496.49 C 544.63 493.59 562.65 490.11 588.50 486.95 C 628.98 482.00 638.13 483.26 658.26 496.59 C 663.89 500.31 671.94 506.78 676.15 510.96 L 683.81 518.56 L 686.79 515.43 C 690.00 512.06 693.43 511.00 701.16 511.00 C 708.31 511.00 712.90 508.18 720.08 499.40 C 723.95 494.67 727.65 491.21 729.82 490.30 C 736.59 487.47 744.02 490.98 746.12 498.01 C 747.11 501.32 747.56 501.77 749.08 500.96 C 750.06 500.43 751.71 500.00 752.74 500.00 C 753.77 500.00 756.11 498.45 757.94 496.57 C 762.13 492.24 767.37 491.13 772.38 493.51 C 776.58 495.50 778.61 498.37 779.55 503.60 C 779.93 505.75 781.10 508.44 782.15 509.59 C 788.53 516.61 785.02 527.57 775.57 530.11 C 769.80 531.67 766.00 534.64 766.00 537.60 C 766.00 541.54 763.39 546.70 760.41 548.65 C 758.71 549.77 754.74 550.71 750.02 551.11 C 738.14 552.13 731.64 556.03 725.63 565.72 C 720.74 573.60 711.88 575.47 705.60 569.96 L 702.14 566.91 L 701.50 571.21 C 701.15 573.57 701.00 577.68 701.18 580.35 L 701.50 585.20 L 704.14 583.11 C 709.14 579.17 729.52 569.11 739.00 565.91 C 751.85 561.57 759.48 561.54 775.00 565.78 C 781.33 567.51 790.86 569.86 796.19 571.02 C 815.96 575.30 830.09 584.75 831.58 594.68 C 832.89 603.44 831.76 606.34 816.44 633.54 L 814.16 637.59 L 818.58 640.39 C 831.27 648.41 842.00 667.48 842.00 681.98 C 842.00 688.00 838.99 698.63 835.70 704.25 C 828.77 716.08 816.60 727.08 807.18 730.05 C 805.16 730.69 799.45 733.06 794.50 735.33 C 786.58 738.96 784.54 739.47 777.50 739.63 C 763.85 739.94 725.10 732.65 712.83 727.47 C 709.35 726.00 703.69 723.72 700.25 722.41 C 691.91 719.24 684.67 715.51 683.06 713.58 C 682.34 712.71 681.41 712.00 681.00 712.00 C 679.90 712.00 678.00 720.19 678.00 724.89 C 678.00 731.49 675.94 739.28 673.26 742.86 C 668.31 749.45 658.57 751.54 647.50 748.40 Z M 649.00 737.93 C 662.87 741.69 666.33 739.28 667.44 725.06 C 668.00 717.87 669.31 712.52 673.58 699.95 C 676.56 691.16 679.00 682.52 679.00 680.74 C 678.99 676.24 675.61 671.15 671.48 669.43 C 665.78 667.04 654.54 666.64 644.50 668.45 C 628.67 671.30 621.76 671.40 606.00 669.00 C 590.99 666.71 587.62 665.70 588.24 663.68 C 588.93 661.43 604.56 654.08 617.50 649.92 C 633.36 644.82 636.17 643.45 647.15 635.42 C 651.91 631.94 659.31 627.26 663.61 625.01 C 674.35 619.38 677.59 616.70 682.12 609.69 C 687.43 601.48 688.91 596.06 690.64 578.50 C 691.46 570.25 692.36 561.25 692.65 558.50 C 693.71 548.54 686.62 536.65 669.04 518.89 C 660.93 510.70 646.92 500.95 638.63 497.72 C 629.55 494.19 617.27 494.35 585.35 498.42 C 541.62 503.99 534.05 507.19 520.84 525.67 C 514.16 535.01 498.65 562.73 496.39 569.36 C 494.13 576.00 495.16 580.19 500.27 585.15 C 502.56 587.37 506.55 590.26 509.13 591.57 C 513.49 593.78 529.20 598.01 538.50 599.49 C 540.70 599.84 544.86 600.85 547.75 601.74 C 552.62 603.25 553.39 603.24 558.35 601.68 C 561.29 600.75 564.44 599.17 565.35 598.17 C 566.26 597.16 568.57 592.36 570.48 587.49 C 577.36 569.96 591.05 561.85 599.50 570.30 C 607.51 578.31 606.55 593.83 597.55 601.74 C 591.18 607.36 560.64 622.78 553.34 624.07 C 537.20 626.93 522.02 634.16 509.57 644.94 C 505.29 648.65 480.59 676.39 478.50 679.85 C 477.95 680.76 477.50 688.03 477.50 696.02 L 477.50 710.53 L 480.87 715.80 C 485.06 722.33 490.74 725.80 500.17 727.60 C 506.27 728.76 509.41 728.72 523.36 727.28 C 546.36 724.90 579.70 724.93 591.50 727.33 C 613.97 731.90 620.34 733.06 630.57 734.43 C 636.58 735.24 644.88 736.81 649.00 737.93 Z M 111.00 522.45 C 125.08 527.56 130.06 527.35 157.64 520.50 C 169.81 517.47 184.08 513.44 189.34 511.53 C 194.61 509.63 205.57 506.69 213.71 505.01 C 234.18 500.78 234.68 500.58 238.09 495.20 C 241.59 489.67 241.93 483.74 239.06 478.11 C 237.07 474.21 234.00 462.51 234.00 458.81 C 234.00 456.04 229.13 445.05 226.69 442.29 C 223.64 438.86 217.41 438.39 208.79 440.94 C 194.79 445.08 176.49 452.95 167.26 458.79 C 164.64 460.45 159.93 462.60 156.78 463.58 C 147.06 466.58 143.46 463.29 141.74 449.84 C 140.73 441.92 140.77 441.61 142.98 439.81 C 144.76 438.37 146.84 437.99 152.38 438.07 C 156.80 438.14 160.87 437.59 163.11 436.64 C 165.73 435.51 168.59 435.24 173.61 435.65 C 179.73 436.14 180.89 435.94 184.00 433.83 C 190.62 429.34 192.10 419.78 188.32 406.00 C 186.58 399.66 185.91 398.69 180.60 394.83 C 175.96 391.46 171.13 391.15 166.62 393.92 C 163.33 395.94 147.32 401.47 141.73 402.52 C 137.66 403.29 135.53 401.20 134.68 395.62 C 133.51 388.02 137.87 382.44 147.39 379.32 C 151.47 377.99 156.84 377.62 174.00 377.53 C 193.40 377.42 196.06 377.20 201.27 375.25 C 204.44 374.07 209.79 372.78 213.16 372.40 C 222.13 371.39 222.76 370.43 222.79 357.79 C 222.81 351.23 223.41 345.36 224.41 341.99 C 227.08 333.01 226.63 330.33 221.66 325.62 C 212.97 317.37 205.83 312.03 201.95 310.87 C 197.44 309.51 192.14 310.23 170.50 315.13 C 163.35 316.75 149.62 319.64 140.00 321.55 C 98.59 329.78 91.11 333.76 83.68 351.50 C 81.61 356.45 78.14 364.10 75.98 368.50 C 71.76 377.08 68.78 387.71 67.05 400.40 C 66.21 406.60 66.30 410.92 67.46 420.40 C 68.28 427.06 69.43 439.92 70.03 449.00 C 71.36 469.37 72.96 477.43 78.46 491.50 C 80.82 497.55 83.32 504.30 84.01 506.50 C 86.84 515.51 90.79 519.00 98.15 519.00 C 99.99 519.00 105.78 520.55 111.00 522.45 Z M 772.50 729.33 C 777.40 730.00 783.19 728.91 788.26 726.35 C 790.88 725.03 796.95 722.53 801.75 720.80 C 809.72 717.91 811.09 717.00 817.74 710.15 C 827.42 700.19 830.39 694.09 830.85 683.23 C 831.19 675.47 830.99 674.51 827.65 667.47 C 825.58 663.12 821.93 657.70 818.97 654.56 C 814.62 649.96 812.41 648.59 804.26 645.43 C 790.54 640.12 784.08 638.30 770.54 635.96 C 753.74 633.06 748.31 630.02 750.99 625.02 C 752.60 622.01 755.30 621.00 761.75 621.00 C 771.25 621.00 784.99 625.97 789.50 631.03 C 790.60 632.27 792.94 633.89 794.70 634.63 C 798.65 636.30 801.84 635.27 804.95 631.33 C 809.14 626.01 821.97 601.51 821.98 598.78 C 822.03 591.97 807.53 583.50 790.85 580.59 C 786.24 579.79 778.43 577.92 773.49 576.44 C 761.20 572.77 751.06 572.72 741.78 576.30 C 731.81 580.14 713.19 589.89 709.30 593.31 C 705.01 597.08 703.67 599.70 699.32 612.82 C 694.96 626.02 693.96 636.01 696.50 641.35 C 698.90 646.41 706.12 652.53 712.51 654.92 C 715.43 656.01 722.93 657.86 729.16 659.03 C 739.05 660.89 750.12 663.49 763.24 667.06 C 767.37 668.18 770.55 672.69 769.51 675.95 C 768.61 678.81 762.87 681.00 756.35 680.99 C 749.69 680.97 737.49 676.25 731.40 671.34 C 723.77 665.17 721.65 664.00 718.08 664.00 C 713.42 664.00 707.80 668.51 704.55 674.85 C 703.24 677.41 700.29 681.30 697.99 683.50 C 690.12 691.04 687.37 696.13 687.86 702.27 C 688.02 704.29 695.53 709.37 700.90 711.11 C 702.88 711.74 708.57 713.99 713.54 716.10 C 725.68 721.24 744.29 725.42 772.50 729.33 Z M 865.76 540.51 C 875.71 543.04 906.58 540.30 914.67 536.17 C 920.66 533.11 934.72 517.56 938.77 509.50 C 940.47 506.12 946.28 481.40 948.95 466.19 C 949.36 463.82 949.23 455.76 948.66 448.29 C 947.86 437.90 947.95 429.96 949.01 414.60 C 950.65 390.99 951.04 386.48 949.03 383.71 C 948.48 382.96 947.76 382.33 946.83 381.49 C 942.92 377.90 937.74 376.01 931.80 376.01 C 925.75 376.00 922.93 377.90 920.35 383.73 C 919.07 386.63 917.46 389.00 916.76 389.00 C 916.06 389.00 913.35 387.47 910.72 385.61 C 904.55 381.22 900.94 380.62 891.90 382.50 C 875.31 385.95 872.69 387.72 866.80 399.40 C 865.11 402.75 861.82 407.98 859.48 411.00 C 851.90 420.81 850.79 424.52 851.95 436.08 C 853.02 446.68 858.12 457.63 863.97 461.86 C 870.98 466.94 882.61 471.24 890.80 471.79 C 897.79 472.25 898.29 472.13 902.61 469.03 C 905.09 467.25 907.26 465.95 907.44 466.14 C 907.61 466.34 907.43 472.05 907.03 478.83 C 906.35 490.39 906.13 491.32 903.63 493.83 C 901.40 496.05 900.13 496.48 896.10 496.35 C 889.95 496.17 883.53 493.33 875.03 487.02 C 865.89 480.25 860.71 478.05 853.82 478.02 C 846.87 478.00 844.21 478.93 836.50 484.12 C 828.54 489.47 824.51 495.11 824.50 500.88 C 824.50 504.93 824.92 505.64 830.15 510.38 C 833.26 513.20 837.40 518.03 839.35 521.12 C 845.64 531.09 854.61 537.68 865.76 540.51 Z M 636.55 464.86 C 652.95 466.96 658.68 465.54 660.90 458.81 C 662.01 455.44 661.92 454.23 658.89 432.84 C 656.96 419.25 659.67 414.15 669.04 413.71 C 673.39 413.51 673.56 413.62 675.81 418.00 C 678.60 423.42 678.37 426.41 673.91 442.43 C 670.50 454.67 670.73 457.47 675.43 460.55 C 678.28 462.42 681.33 462.57 695.50 461.53 C 703.14 460.98 706.19 460.32 708.40 458.76 C 710.90 457.00 711.60 456.90 713.40 458.02 C 717.37 460.49 722.01 460.92 727.10 459.28 C 731.57 457.83 732.39 457.85 737.45 459.44 C 744.45 461.64 748.03 460.86 752.08 456.25 C 755.05 452.87 755.21 452.30 754.66 447.07 C 754.33 444.01 752.88 438.12 751.44 434.00 C 747.65 423.19 747.60 409.70 751.32 398.50 C 754.64 388.49 754.74 386.00 751.83 386.00 C 750.64 386.00 747.24 384.63 744.28 382.96 C 739.94 380.51 738.19 380.05 735.20 380.55 C 728.48 381.67 722.32 384.03 720.23 386.28 C 716.97 389.79 717.03 395.18 720.57 414.44 C 721.99 422.15 721.96 422.68 719.46 432.36 C 716.60 443.42 714.60 448.00 712.65 448.00 C 711.93 448.00 710.30 445.78 709.03 443.07 C 706.61 437.90 706.57 434.59 708.62 411.92 C 709.33 404.02 707.71 395.35 704.68 390.85 C 703.47 389.05 698.98 385.20 694.70 382.29 C 687.20 377.19 686.68 377.00 680.21 377.02 C 673.80 377.04 668.64 378.66 663.89 382.14 C 663.00 382.79 661.47 383.01 660.49 382.64 C 658.94 382.04 658.80 381.11 659.37 375.23 C 659.73 371.53 660.74 365.35 661.62 361.50 C 662.50 357.65 663.84 351.80 664.59 348.50 C 666.46 340.32 666.30 333.06 664.05 323.11 C 661.58 312.19 660.91 311.55 653.45 312.92 C 650.25 313.52 643.23 314.00 637.85 314.00 C 626.00 314.00 625.38 314.58 626.40 324.92 C 629.65 357.91 629.78 371.69 626.98 383.50 C 623.70 397.38 623.54 401.40 625.90 411.33 C 628.41 421.88 628.62 433.97 626.50 446.00 C 623.68 462.01 624.36 463.29 636.55 464.86 Z M 348.14 645.20 C 350.80 648.93 353.62 648.79 361.71 644.50 C 367.76 641.29 369.01 641.00 376.90 640.99 C 391.12 640.96 394.02 637.85 390.07 626.82 C 385.23 613.30 382.10 603.12 379.97 594.00 C 377.91 585.14 377.86 584.25 379.32 580.77 C 381.13 576.45 386.12 573.01 390.58 573.00 C 394.11 573.00 396.36 575.13 400.61 582.50 C 403.42 587.37 403.51 587.96 404.00 605.00 L 404.50 622.50 L 408.20 628.19 C 410.23 631.31 412.79 634.35 413.88 634.94 C 417.76 637.01 423.57 636.14 430.56 632.43 C 437.00 629.02 437.48 628.92 442.06 630.01 C 447.89 631.41 450.49 630.32 451.33 626.10 C 451.66 624.47 451.29 621.19 450.51 618.82 C 448.16 611.65 446.00 593.65 446.00 581.30 L 446.00 569.66 L 440.87 558.58 C 434.98 545.87 431.88 541.55 425.07 536.55 C 413.30 527.91 401.52 527.41 385.48 534.88 C 382.17 536.42 376.67 540.26 373.26 543.42 C 369.85 546.57 366.60 548.87 366.03 548.52 C 365.46 548.17 365.00 546.16 365.00 544.05 C 365.00 541.83 364.23 539.27 363.17 537.97 C 360.66 534.86 356.43 535.78 346.94 541.49 C 342.85 543.95 338.94 545.97 338.25 545.98 C 337.57 545.99 335.20 547.63 333.00 549.62 C 328.01 554.13 327.88 556.61 332.13 567.50 C 338.66 584.25 339.93 590.21 340.96 608.90 C 341.99 627.66 344.43 639.99 348.14 645.20 Z M 470.50 516.66 C 472.70 517.38 476.27 517.78 478.43 517.55 C 483.83 516.99 504.20 506.69 517.50 497.80 C 527.69 490.99 528.73 489.99 531.58 484.29 C 534.50 478.43 539.88 459.78 542.02 448.07 C 542.57 445.08 543.50 436.10 544.10 428.12 C 544.93 416.94 545.74 412.11 547.67 407.06 C 549.05 403.45 550.76 398.96 551.47 397.07 C 552.95 393.16 552.03 389.25 549.01 386.51 C 546.56 384.29 526.42 377.00 522.75 377.00 C 518.62 377.00 514.50 379.45 512.10 383.34 C 509.15 388.10 509.40 395.24 512.95 408.33 C 516.03 419.70 515.94 422.20 512.28 426.25 C 509.65 429.15 503.41 428.56 499.92 425.08 C 497.39 422.55 497.00 421.41 497.00 416.58 C 497.00 413.52 497.93 408.33 499.06 405.05 C 501.35 398.43 500.96 396.69 496.37 393.08 C 494.09 391.28 492.34 391.00 483.48 391.00 L 473.23 391.00 L 469.52 395.11 C 463.45 401.83 462.57 404.94 464.39 413.39 C 465.23 417.30 466.20 424.77 466.55 430.00 C 467.56 444.97 470.79 449.81 483.74 455.74 C 488.36 457.85 491.08 458.38 497.97 458.48 C 508.06 458.62 508.57 459.29 503.91 466.32 C 499.39 473.15 496.47 474.36 485.99 473.76 C 476.48 473.22 475.99 473.03 464.39 465.36 C 451.15 456.61 446.56 458.04 438.85 473.29 C 435.78 479.35 429.00 498.18 429.00 500.62 C 429.00 501.29 430.18 503.25 431.62 504.97 L 434.25 508.08 L 442.55 507.41 L 450.85 506.74 L 458.68 511.04 C 462.98 513.41 468.30 515.93 470.50 516.66 Z M 580.91 461.16 C 588.26 463.58 605.82 463.30 610.73 460.69 C 614.70 458.58 617.00 454.36 617.00 449.22 C 617.00 447.09 618.14 442.09 619.53 438.10 C 622.33 430.08 622.13 425.13 618.86 421.86 C 616.21 419.21 611.86 419.55 603.94 423.02 C 597.37 425.91 596.89 425.98 593.49 424.56 C 588.00 422.27 586.59 417.88 587.37 405.50 C 588.07 394.50 590.28 383.75 592.57 380.25 C 594.55 377.23 599.33 377.34 604.50 380.53 C 606.70 381.88 609.70 382.99 611.18 382.99 C 614.80 383.00 618.35 378.53 617.48 375.06 C 617.13 373.66 616.87 368.80 616.90 364.24 C 616.96 357.15 616.67 355.67 614.89 353.89 C 613.50 352.50 612.10 352.01 610.66 352.42 C 606.20 353.67 600.05 354.23 597.57 353.61 C 595.70 353.14 595.00 352.31 595.00 350.54 C 595.00 347.50 597.47 336.74 599.48 331.06 C 601.62 324.98 601.46 318.73 599.10 316.59 C 598.05 315.64 594.81 314.63 591.79 314.32 C 587.25 313.85 584.68 314.35 575.93 317.38 C 559.65 323.02 558.47 324.56 561.43 336.36 C 563.47 344.51 563.49 350.87 561.48 351.65 C 560.64 351.97 557.06 351.50 553.52 350.62 C 538.17 346.76 534.14 349.75 533.72 365.26 L 533.50 373.50 L 537.50 375.50 C 540.25 376.88 544.31 377.66 550.50 378.00 L 559.50 378.50 L 559.43 387.50 C 559.39 393.82 558.58 399.57 556.71 406.81 C 552.66 422.47 552.31 428.42 554.95 436.34 C 558.56 447.19 569.10 457.27 580.91 461.16 Z M 346.70 465.99 C 354.26 468.26 359.64 466.66 369.88 459.11 C 373.52 456.43 380.05 452.27 384.40 449.87 C 393.06 445.08 395.57 442.07 396.59 435.22 C 397.36 430.10 395.27 424.59 391.01 420.51 C 388.56 418.16 387.41 417.86 380.38 417.71 C 371.15 417.50 367.98 418.83 364.09 424.51 C 360.49 429.79 356.73 432.40 353.79 431.66 C 349.87 430.68 343.00 423.69 343.00 420.69 C 343.00 417.64 344.73 416.52 351.00 415.50 C 353.48 415.09 359.10 413.74 363.50 412.49 C 367.90 411.24 374.85 409.66 378.95 408.98 C 384.92 408.00 386.99 407.17 389.32 404.83 C 391.90 402.25 392.17 401.44 391.60 397.88 C 390.77 392.68 386.23 383.74 381.20 377.38 C 379.02 374.62 376.55 371.04 375.71 369.43 C 373.43 365.04 369.69 361.98 365.89 361.40 C 362.27 360.84 345.02 366.49 334.19 371.77 C 327.23 375.17 319.57 382.70 317.98 387.71 C 317.32 389.79 314.47 396.90 311.66 403.50 C 306.66 415.22 306.55 415.71 306.70 424.65 C 307.02 442.37 309.96 447.25 324.59 454.35 C 330.04 456.99 336.62 460.50 339.20 462.15 C 341.79 463.80 345.16 465.53 346.70 465.99 Z M 259.50 470.12 C 262.02 471.28 263.22 471.85 264.39 471.82 C 265.54 471.79 266.67 471.19 269.01 469.99 C 272.58 468.17 279.06 460.79 281.86 455.35 C 282.47 454.17 284.07 448.99 285.41 443.85 C 287.79 434.77 291.77 423.76 294.27 419.32 C 294.95 418.12 297.85 413.72 300.71 409.54 C 306.31 401.38 311.02 388.74 313.21 376.00 C 314.28 369.72 314.23 368.91 312.56 367.06 C 311.55 365.95 309.10 364.80 307.11 364.50 C 305.13 364.21 300.47 363.25 296.78 362.37 C 288.18 360.32 283.99 361.11 278.88 365.73 C 273.54 370.55 272.47 372.87 269.45 386.18 C 264.19 409.39 262.39 415.49 260.72 415.81 C 256.85 416.56 251.43 399.39 251.84 387.67 L 252.11 379.84 L 247.69 375.42 C 242.22 369.96 238.94 369.70 229.84 374.00 C 225.15 376.22 222.05 377.00 217.90 377.00 C 210.65 377.00 205.65 380.04 205.19 384.73 C 204.81 388.65 211.63 400.37 221.94 413.54 C 230.06 423.91 234.67 432.83 238.46 445.50 C 241.04 454.15 241.43 454.77 248.32 461.40 C 252.27 465.19 257.30 469.12 259.50 470.12 Z M 813.12 465.11 C 817.85 467.63 836.29 466.91 842.03 463.98 C 847.30 461.30 847.92 459.82 846.33 453.70 C 844.79 447.77 844.62 435.32 845.99 429.50 C 846.51 427.30 847.24 420.32 847.61 413.98 C 848.21 403.55 848.08 402.07 846.22 398.43 C 843.58 393.25 836.60 386.84 829.90 383.45 C 820.12 378.49 808.93 379.23 799.02 385.49 C 794.51 388.34 793.00 387.42 793.00 381.84 C 793.00 377.18 791.13 375.99 783.82 376.02 C 776.20 376.04 767.29 378.38 764.35 381.13 C 761.52 383.78 761.55 386.03 764.62 401.00 C 765.71 406.30 765.97 410.99 765.51 417.00 C 764.92 424.69 764.13 428.57 759.42 447.07 C 757.38 455.07 757.60 456.60 761.42 460.76 C 764.73 464.37 765.10 464.51 772.17 464.71 C 776.20 464.83 782.07 465.22 785.21 465.58 C 790.60 466.20 791.08 466.08 793.87 463.28 C 798.16 459.00 798.86 452.91 796.12 443.68 C 791.65 428.61 794.88 415.25 803.64 412.59 C 806.48 411.72 811.20 415.72 813.89 421.27 C 815.80 425.22 815.84 425.92 814.56 432.00 C 813.81 435.58 811.80 442.00 810.10 446.28 C 808.39 450.55 807.02 455.05 807.04 456.28 C 807.09 459.75 809.43 463.15 813.12 465.11 Z M 403.39 457.66 C 406.90 460.67 409.83 460.61 417.92 457.34 C 423.06 455.26 426.29 454.66 432.68 454.59 C 441.67 454.49 445.26 452.84 447.82 447.64 C 449.03 445.17 448.73 444.08 444.14 434.20 C 441.39 428.29 437.54 418.15 435.57 411.67 C 431.36 397.78 430.93 390.63 434.07 386.63 C 437.91 381.75 442.69 383.73 449.51 393.01 C 453.41 398.33 455.24 398.97 459.80 396.60 C 463.59 394.62 466.04 391.69 471.59 382.50 C 479.35 369.66 477.84 364.05 464.20 354.93 C 457.03 350.13 456.19 349.82 451.51 350.22 C 444.27 350.83 439.31 353.55 432.43 360.67 C 427.77 365.50 426.08 366.68 425.18 365.78 C 424.53 365.13 424.00 363.58 424.00 362.32 C 424.00 359.25 420.00 356.71 416.53 357.58 C 415.06 357.95 411.53 359.54 408.68 361.11 C 405.83 362.68 402.24 363.97 400.70 363.98 C 396.70 364.01 392.07 366.68 390.96 369.61 C 389.04 374.65 389.83 377.64 394.53 383.14 C 402.47 392.44 404.02 402.43 401.96 431.00 C 400.56 450.59 400.27 454.13 401.87 456.20 C 402.26 456.70 402.76 457.12 403.39 457.66 Z M 281.30 655.50 C 284.11 657.46 287.35 657.40 291.30 655.29 C 293.66 654.04 298.17 653.43 308.50 652.96 C 327.37 652.12 331.00 650.20 331.00 641.10 C 331.00 638.89 330.11 634.69 329.02 631.79 C 325.62 622.69 321.22 605.86 319.94 597.04 C 319.12 591.42 318.93 583.51 319.36 573.51 C 319.98 559.18 319.90 558.22 317.75 553.97 C 315.55 549.59 315.39 549.49 310.11 549.19 C 305.72 548.94 303.17 549.55 296.43 552.44 C 291.88 554.40 286.80 556.00 285.14 556.00 C 283.48 556.00 281.84 556.45 281.50 557.00 C 281.16 557.55 278.87 558.51 276.41 559.13 C 273.95 559.75 271.28 561.20 270.47 562.35 C 268.40 565.30 268.64 571.03 271.09 577.21 C 275.67 588.77 277.12 600.76 276.83 624.50 C 276.53 648.05 277.19 652.62 281.30 655.50 Z M 746.00 371.50 C 749.51 373.98 752.49 376.00 752.61 376.00 C 752.74 376.00 753.55 375.72 754.43 375.39 C 755.80 374.86 755.93 373.46 755.38 365.58 L 754.73 356.37 L 757.62 354.11 C 759.20 352.87 762.97 350.42 766.00 348.67 C 769.58 346.60 771.61 344.73 771.81 343.33 C 772.08 341.42 770.97 340.81 761.81 337.84 C 752.36 334.78 751.35 334.21 749.75 331.00 C 748.52 328.53 748.00 325.11 748.00 319.36 C 748.00 312.92 747.61 310.74 746.14 308.93 C 744.32 306.68 744.26 306.67 742.67 308.57 C 741.79 309.63 739.36 313.88 737.28 318.00 C 732.56 327.37 728.47 330.03 717.63 330.77 C 706.75 331.51 705.07 334.34 712.06 340.13 C 722.66 348.93 723.16 349.60 722.43 353.70 C 722.05 355.79 721.08 359.30 720.27 361.50 C 716.09 372.79 717.84 374.97 727.21 370.13 C 735.52 365.85 738.25 366.05 746.00 371.50 Z M 271.04 547.55 C 272.84 549.72 273.49 549.45 279.61 543.90 C 288.39 535.95 292.65 534.79 304.38 537.15 C 311.68 538.61 313.51 537.38 310.17 533.25 C 306.74 529.02 304.05 522.85 304.02 519.20 C 303.99 515.00 305.89 511.40 310.41 507.05 C 316.86 500.86 314.97 499.44 304.01 502.25 C 297.83 503.83 295.85 503.97 292.72 503.03 C 289.09 501.95 282.26 495.99 278.92 491.01 C 276.37 487.18 274.00 488.96 273.99 494.72 C 273.98 505.64 269.93 512.07 260.00 516.88 C 252.13 520.70 252.50 522.06 262.33 525.53 C 269.26 527.97 271.29 531.54 270.46 539.80 C 270.03 544.09 270.22 546.55 271.04 547.55 Z M 712.46 561.93 C 713.61 563.79 714.77 563.11 717.07 559.25 C 723.14 549.08 733.77 542.12 744.44 541.33 C 754.04 540.62 755.17 540.23 754.81 537.76 C 754.61 536.33 752.48 534.39 748.62 532.11 C 736.27 524.79 733.75 520.19 735.70 508.53 C 737.56 497.47 735.41 497.21 727.37 507.53 C 719.98 517.00 712.70 521.08 701.64 521.94 C 695.95 522.39 694.45 522.85 694.19 524.23 C 693.95 525.50 695.35 526.62 699.41 528.42 C 704.09 530.49 705.61 531.87 709.06 537.19 L 713.15 543.50 L 712.48 552.18 C 712.10 556.96 712.10 561.35 712.46 561.93 Z M 692.93 673.10 C 694.07 671.50 695.00 669.79 695.00 669.29 C 695.00 668.79 696.13 666.86 697.51 664.99 L 700.01 661.59 L 695.13 656.94 C 692.45 654.38 688.96 650.08 687.38 647.39 C 684.77 642.97 684.50 641.63 684.50 633.35 L 684.50 624.20 L 680.00 627.48 C 677.53 629.28 672.80 632.12 669.50 633.78 C 666.20 635.44 659.45 639.67 654.50 643.17 C 641.85 652.13 639.54 653.43 630.50 656.65 C 620.57 660.18 622.93 660.77 637.73 658.45 C 654.87 655.76 659.19 655.62 667.42 657.45 C 677.59 659.71 683.69 663.85 686.99 670.74 C 688.37 673.61 689.81 675.98 690.18 675.99 C 690.56 675.99 691.79 674.69 692.93 673.10 Z M 901.25 438.43 C 894.70 440.66 893.23 440.42 890.99 436.75 C 889.43 434.20 889.01 431.71 889.00 425.18 C 889.00 410.87 892.39 408.20 903.79 413.59 L 909.27 416.19 L 908.70 423.34 C 907.83 434.27 906.70 436.57 901.25 438.43 Z M 211.72 429.08 L 218.93 427.48 L 212.49 419.29 C 205.52 410.43 196.73 396.38 194.93 391.21 C 194.31 389.45 193.17 388.00 192.40 388.00 C 190.43 388.00 190.64 388.78 193.49 392.17 C 198.90 398.60 202.25 418.60 199.64 428.89 C 198.79 432.25 198.80 432.27 201.64 431.48 C 203.21 431.05 207.75 429.97 211.72 429.08 Z M 609.99 409.39 C 614.02 408.74 614.17 408.59 613.60 405.73 C 613.27 404.09 613.00 400.62 613.00 398.01 C 613.00 393.63 612.83 393.31 610.73 393.71 C 609.48 393.95 606.52 393.48 604.16 392.67 C 601.02 391.58 599.75 391.50 599.45 392.34 C 598.61 394.63 597.22 410.13 597.69 411.92 C 598.15 413.68 598.29 413.68 601.97 411.90 C 604.07 410.89 607.67 409.76 609.99 409.39 Z M 758.67 525.33 C 759.71 526.38 760.65 526.13 762.05 524.43 C 763.93 522.17 768.51 520.00 771.39 520.00 C 775.08 520.00 775.46 518.34 772.57 514.90 C 771.16 513.22 769.72 510.07 769.37 507.90 C 769.02 505.73 768.33 503.70 767.83 503.40 C 767.33 503.09 765.14 504.45 762.96 506.42 C 760.61 508.54 757.96 510.00 756.47 510.00 C 752.88 510.00 752.43 512.34 755.44 515.34 C 757.18 517.09 758.00 518.99 758.00 521.29 C 758.00 523.15 758.30 524.97 758.67 525.33 Z M 586.16 596.36 C 590.13 593.98 592.14 592.03 592.91 589.83 C 594.39 585.58 594.28 581.77 592.61 579.48 C 591.26 577.64 591.13 577.66 587.64 580.04 C 584.16 582.42 580.10 589.59 578.46 596.26 C 578.08 597.78 577.38 599.27 576.89 599.57 C 576.40 599.87 576.00 600.56 576.00 601.09 C 576.00 602.20 577.85 601.34 586.16 596.36 Z M 351.64 397.91 C 340.71 401.24 338.26 400.66 339.50 395.02 C 340.48 390.52 343.73 387.00 346.89 387.00 C 351.24 387.00 360.05 389.96 360.69 391.63 C 361.58 393.95 359.18 395.62 351.64 397.91 Z M 455.00 423.96 C 453.64 411.47 452.62 408.70 448.77 407.05 C 446.97 406.28 445.17 405.47 444.77 405.25 C 443.86 404.75 451.19 425.54 453.48 429.96 C 454.40 431.74 455.32 433.01 455.53 432.80 C 455.75 432.59 455.51 428.61 455.00 423.96 Z M 159.50 450.54 L 163.50 448.08 L 158.00 448.68 C 153.84 449.13 152.46 449.25 152.22 449.83 C 152.08 450.15 152.30 450.61 152.58 451.36 C 153.44 453.58 154.79 453.42 159.50 450.54 Z M 391.41 588.79 C 390.46 586.70 389.50 585.17 389.27 585.40 C 389.03 585.63 389.67 589.52 390.67 594.05 L 392.50 602.28 L 392.81 597.44 C 393.01 594.40 392.49 591.19 391.41 588.79 Z M 896.00 484.61 C 896.00 483.71 894.59 483.08 892.08 482.84 C 887.54 482.40 887.66 483.55 892.30 484.89 C 894.06 485.40 895.61 485.86 895.75 485.91 C 895.89 485.96 896.00 485.37 896.00 484.61 Z" stroke-linecap="round"></path>
</g>
		<g id="79190a45-1df7-4551-9067-ff7aebf3acbd-child-1">
<path style="stroke: rgb(193,193,193); stroke-opacity: 1.00; stroke-width: 0; stroke-dasharray: none; stroke-linecap: butt; stroke-dashoffset: 0; stroke-linejoin: miter; stroke-miterlimit: 4; fill: rgb(255,222,122); fill-opacity: 1.00; fill-rule: nonzero; opacity: 1;" transform="matrix(1.171875 0 0 1.171881 595.466698 613.26117) matrix(1 0 0 1 6.354454 -88.259628)  translate(-514.485501, -435.056384)" d="M 746.00 371.50 C 738.25 366.05 735.52 365.85 727.21 370.13 C 717.84 374.97 716.09 372.79 720.27 361.50 C 721.08 359.30 722.05 355.79 722.43 353.70 C 723.16 349.60 722.66 348.93 712.06 340.13 C 705.07 334.34 706.75 331.51 717.63 330.77 C 728.47 330.03 732.56 327.37 737.28 318.00 C 739.36 313.88 741.79 309.63 742.67 308.57 C 744.26 306.67 744.32 306.68 746.14 308.93 C 747.61 310.74 748.00 312.92 748.00 319.36 C 748.00 325.11 748.52 328.53 749.75 331.00 C 751.35 334.21 752.36 334.78 761.81 337.84 C 770.97 340.81 772.08 341.42 771.81 343.33 C 771.61 344.73 769.58 346.60 766.00 348.67 C 762.97 350.42 759.20 352.87 757.62 354.11 L 754.73 356.37 L 755.38 365.58 C 755.93 373.46 755.80 374.86 754.43 375.39 C 753.55 375.72 752.74 376.00 752.61 376.00 C 752.49 376.00 749.51 373.98 746.00 371.50 Z M 271.04 547.55 C 270.22 546.55 270.03 544.09 270.46 539.80 C 271.29 531.54 269.26 527.97 262.33 525.53 C 252.50 522.06 252.13 520.70 260.00 516.88 C 269.93 512.07 273.98 505.64 273.99 494.72 C 274.00 488.96 276.37 487.18 278.92 491.01 C 282.26 495.99 289.09 501.95 292.72 503.03 C 295.85 503.97 297.83 503.83 304.01 502.25 C 314.97 499.44 316.86 500.86 310.41 507.05 C 305.89 511.40 303.99 515.00 304.02 519.20 C 304.05 522.85 306.74 529.02 310.17 533.25 C 313.51 537.38 311.68 538.61 304.38 537.15 C 292.65 534.79 288.39 535.95 279.61 543.90 C 273.49 549.45 272.84 549.72 271.04 547.55 Z M 712.46 561.93 C 712.10 561.35 712.10 556.96 712.48 552.18 L 713.15 543.50 L 709.06 537.19 C 705.61 531.87 704.09 530.49 699.41 528.42 C 695.35 526.62 693.95 525.50 694.19 524.23 C 694.45 522.85 695.95 522.39 701.64 521.94 C 712.70 521.08 719.98 517.00 727.37 507.53 C 735.41 497.21 737.56 497.47 735.70 508.53 C 733.75 520.19 736.27 524.79 748.62 532.11 C 752.48 534.39 754.61 536.33 754.81 537.76 C 755.17 540.23 754.04 540.62 744.44 541.33 C 733.77 542.12 723.14 549.08 717.07 559.25 C 714.77 563.11 713.61 563.79 712.46 561.93 Z M 758.67 525.33 C 758.30 524.97 758.00 523.15 758.00 521.29 C 758.00 518.99 757.18 517.09 755.44 515.34 C 752.43 512.34 752.88 510.00 756.47 510.00 C 757.96 510.00 760.61 508.54 762.96 506.42 C 765.14 504.45 767.33 503.09 767.83 503.40 C 768.33 503.70 769.02 505.73 769.37 507.90 C 769.72 510.07 771.16 513.22 772.57 514.90 C 775.46 518.34 775.08 520.00 771.39 520.00 C 768.51 520.00 763.93 522.17 762.05 524.43 C 760.65 526.13 759.71 526.38 758.67 525.33 Z" stroke-linecap="round"></path>
</g>
		<g id="79190a45-1df7-4551-9067-ff7aebf3acbd-child-2">
<path style="stroke: rgb(193,193,193); stroke-opacity: 1.00; stroke-width: 0; stroke-dasharray: none; stroke-linecap: butt; stroke-dashoffset: 0; stroke-linejoin: miter; stroke-miterlimit: 4; fill: rgb(254,254,254); fill-opacity: 1.00; fill-rule: nonzero; opacity: 1;" transform="matrix(1.171875 0 0 1.171881 595.466698 613.26117) matrix(1 0 0 1 0.311329 1.572933)  translate(-508.442376, -524.888945)" d="M 649.00 737.93 C 644.88 736.81 636.58 735.24 630.57 734.43 C 620.34 733.06 613.97 731.90 591.50 727.33 C 579.70 724.93 546.36 724.90 523.36 727.28 C 509.41 728.72 506.27 728.76 500.17 727.60 C 490.74 725.80 485.06 722.33 480.87 715.80 L 477.50 710.53 L 477.50 696.02 C 477.50 688.03 477.95 680.76 478.50 679.85 C 480.59 676.39 505.29 648.65 509.57 644.94 C 522.02 634.16 537.20 626.93 553.34 624.07 C 560.64 622.78 591.18 607.36 597.55 601.74 C 606.55 593.83 607.51 578.31 599.50 570.30 C 591.05 561.85 577.36 569.96 570.48 587.49 C 568.57 592.36 566.26 597.16 565.35 598.17 C 564.44 599.17 561.29 600.75 558.35 601.68 C 553.39 603.24 552.62 603.25 547.75 601.74 C 544.86 600.85 540.70 599.84 538.50 599.49 C 529.20 598.01 513.49 593.78 509.13 591.57 C 506.55 590.26 502.56 587.37 500.27 585.15 C 495.16 580.19 494.13 576.00 496.39 569.36 C 498.65 562.73 514.16 535.01 520.84 525.67 C 534.05 507.19 541.62 503.99 585.35 498.42 C 617.27 494.35 629.55 494.19 638.63 497.72 C 646.92 500.95 660.93 510.70 669.04 518.89 C 686.62 536.65 693.71 548.54 692.65 558.50 C 692.36 561.25 691.46 570.25 690.64 578.50 C 688.91 596.06 687.43 601.48 682.12 609.69 C 677.59 616.70 674.35 619.38 663.61 625.01 C 659.31 627.26 651.91 631.94 647.15 635.42 C 636.17 643.45 633.36 644.82 617.50 649.92 C 604.56 654.08 588.93 661.43 588.24 663.68 C 587.62 665.70 590.99 666.71 606.00 669.00 C 621.76 671.40 628.67 671.30 644.50 668.45 C 654.54 666.64 665.78 667.04 671.48 669.43 C 675.61 671.15 678.99 676.24 679.00 680.74 C 679.00 682.52 676.56 691.16 673.58 699.95 C 669.31 712.52 668.00 717.87 667.44 725.06 C 666.33 739.28 662.87 741.69 649.00 737.93 Z M 772.50 729.33 C 744.29 725.42 725.68 721.24 713.54 716.10 C 708.57 713.99 702.88 711.74 700.90 711.11 C 695.53 709.37 688.02 704.29 687.86 702.27 C 687.37 696.13 690.12 691.04 697.99 683.50 C 700.29 681.30 703.24 677.41 704.55 674.85 C 707.80 668.51 713.42 664.00 718.08 664.00 C 721.65 664.00 723.77 665.17 731.40 671.34 C 737.49 676.25 749.69 680.97 756.35 680.99 C 762.87 681.00 768.61 678.81 769.51 675.95 C 770.55 672.69 767.37 668.18 763.24 667.06 C 750.12 663.49 739.05 660.89 729.16 659.03 C 722.93 657.86 715.43 656.01 712.51 654.92 C 706.12 652.53 698.90 646.41 696.50 641.35 C 693.96 636.01 694.96 626.02 699.32 612.82 C 703.67 599.70 705.01 597.08 709.30 593.31 C 713.19 589.89 731.81 580.14 741.78 576.30 C 751.06 572.72 761.20 572.77 773.49 576.44 C 778.43 577.92 786.24 579.79 790.85 580.59 C 807.53 583.50 822.03 591.97 821.98 598.78 C 821.97 601.51 809.14 626.01 804.95 631.33 C 801.84 635.27 798.65 636.30 794.70 634.63 C 792.94 633.89 790.60 632.27 789.50 631.03 C 784.99 625.97 771.25 621.00 761.75 621.00 C 755.30 621.00 752.60 622.01 750.99 625.02 C 748.31 630.02 753.74 633.06 770.54 635.96 C 784.08 638.30 790.54 640.12 804.26 645.43 C 812.41 648.59 814.62 649.96 818.97 654.56 C 821.93 657.70 825.58 663.12 827.65 667.47 C 830.99 674.51 831.19 675.47 830.85 683.23 C 830.39 694.09 827.42 700.19 817.74 710.15 C 811.09 717.00 809.72 717.91 801.75 720.80 C 796.95 722.53 790.88 725.03 788.26 726.35 C 783.19 728.91 777.40 730.00 772.50 729.33 Z M 281.30 655.50 C 277.19 652.62 276.53 648.05 276.83 624.50 C 277.12 600.76 275.67 588.77 271.09 577.21 C 268.64 571.03 268.40 565.30 270.47 562.35 C 271.28 561.20 273.95 559.75 276.41 559.13 C 278.87 558.51 281.16 557.55 281.50 557.00 C 281.84 556.45 283.48 556.00 285.14 556.00 C 286.80 556.00 291.88 554.40 296.43 552.44 C 303.17 549.55 305.72 548.94 310.11 549.19 C 315.39 549.49 315.55 549.59 317.75 553.97 C 319.90 558.22 319.98 559.18 319.36 573.51 C 318.93 583.51 319.12 591.42 319.94 597.04 C 321.22 605.86 325.62 622.69 329.02 631.79 C 330.11 634.69 331.00 638.89 331.00 641.10 C 331.00 650.20 327.37 652.12 308.50 652.96 C 298.17 653.43 293.66 654.04 291.30 655.29 C 287.35 657.40 284.11 657.46 281.30 655.50 Z M 348.14 645.20 C 344.43 639.99 341.99 627.66 340.96 608.90 C 339.93 590.21 338.66 584.25 332.13 567.50 C 327.88 556.61 328.01 554.13 333.00 549.62 C 335.20 547.63 337.57 545.99 338.25 545.98 C 338.94 545.97 342.85 543.95 346.94 541.49 C 356.43 535.78 360.66 534.86 363.17 537.97 C 364.23 539.27 365.00 541.83 365.00 544.05 C 365.00 546.16 365.46 548.17 366.03 548.52 C 366.60 548.87 369.85 546.57 373.26 543.42 C 376.67 540.26 382.17 536.42 385.48 534.88 C 401.52 527.41 413.30 527.91 425.07 536.55 C 431.88 541.55 434.98 545.87 440.87 558.58 L 446.00 569.66 L 446.00 581.30 C 446.00 593.65 448.16 611.65 450.51 618.82 C 451.29 621.19 451.66 624.47 451.33 626.10 C 450.49 630.32 447.89 631.41 442.06 630.01 C 437.48 628.92 437.00 629.02 430.56 632.43 C 423.57 636.14 417.76 637.01 413.88 634.94 C 412.79 634.35 410.23 631.31 408.20 628.19 L 404.50 622.50 L 404.00 605.00 C 403.51 587.96 403.42 587.37 400.61 582.50 C 396.36 575.13 394.11 573.00 390.58 573.00 C 386.12 573.01 381.13 576.45 379.32 580.77 C 377.86 584.25 377.91 585.14 379.97 594.00 C 382.10 603.12 385.23 613.30 390.07 626.82 C 394.02 637.85 391.12 640.96 376.90 640.99 C 369.01 641.00 367.76 641.29 361.71 644.50 C 353.62 648.79 350.80 648.93 348.14 645.20 Z M 865.76 540.51 C 854.61 537.68 845.64 531.09 839.35 521.12 C 837.40 518.03 833.26 513.20 830.15 510.38 C 824.92 505.64 824.50 504.93 824.50 500.88 C 824.51 495.11 828.54 489.47 836.50 484.12 C 844.21 478.93 846.87 478.00 853.82 478.02 C 860.71 478.05 865.89 480.25 875.03 487.02 C 883.53 493.33 889.95 496.17 896.10 496.35 C 900.13 496.48 901.40 496.05 903.63 493.83 C 906.13 491.32 906.35 490.39 907.03 478.83 C 907.43 472.05 907.61 466.34 907.44 466.14 C 907.26 465.95 905.09 467.25 902.61 469.03 C 898.29 472.13 897.79 472.25 890.80 471.79 C 882.61 471.24 870.98 466.94 863.97 461.86 C 858.12 457.63 853.02 446.68 851.95 436.08 C 850.79 424.52 851.90 420.81 859.48 411.00 C 861.82 407.98 865.11 402.75 866.80 399.40 C 872.69 387.72 875.31 385.95 891.90 382.50 C 900.94 380.62 904.55 381.22 910.72 385.61 C 913.35 387.47 916.06 389.00 916.76 389.00 C 917.46 389.00 919.07 386.63 920.35 383.73 C 922.93 377.90 925.75 376.00 931.80 376.01 C 937.74 376.01 942.92 377.90 946.83 381.49 C 951.15 385.44 951.10 384.58 949.01 414.60 C 947.95 429.96 947.86 437.90 948.66 448.29 C 949.23 455.76 949.36 463.82 948.95 466.19 C 946.28 481.40 940.47 506.12 938.77 509.50 C 934.72 517.56 920.66 533.11 914.67 536.17 C 906.58 540.30 875.71 543.04 865.76 540.51 Z M 901.25 438.43 C 906.70 436.57 907.83 434.27 908.70 423.34 L 909.27 416.19 L 903.79 413.59 C 892.39 408.20 889.00 410.87 889.00 425.18 C 889.01 431.71 889.43 434.20 890.99 436.75 C 893.23 440.42 894.70 440.66 901.25 438.43 Z M 111.00 522.45 C 105.78 520.55 99.99 519.00 98.15 519.00 C 90.79 519.00 86.84 515.51 84.01 506.50 C 83.32 504.30 80.82 497.55 78.46 491.50 C 72.96 477.43 71.36 469.37 70.03 449.00 C 69.43 439.92 68.28 427.06 67.46 420.40 C 66.30 410.92 66.21 406.60 67.05 400.40 C 68.78 387.71 71.76 377.08 75.98 368.50 C 78.14 364.10 81.61 356.45 83.68 351.50 C 91.11 333.76 98.59 329.78 140.00 321.55 C 149.62 319.64 163.35 316.75 170.50 315.13 C 192.14 310.23 197.44 309.51 201.95 310.87 C 205.83 312.03 212.97 317.37 221.66 325.62 C 226.63 330.33 227.08 333.01 224.41 341.99 C 223.41 345.36 222.81 351.23 222.79 357.79 C 222.76 370.43 222.13 371.39 213.16 372.40 C 209.79 372.78 204.44 374.07 201.27 375.25 C 196.06 377.20 193.40 377.42 174.00 377.53 C 156.84 377.62 151.47 377.99 147.39 379.32 C 137.87 382.44 133.51 388.02 134.68 395.62 C 135.53 401.20 137.66 403.29 141.73 402.52 C 147.32 401.47 163.33 395.94 166.62 393.92 C 171.13 391.15 175.96 391.46 180.60 394.83 C 185.91 398.69 186.58 399.66 188.32 406.00 C 192.10 419.78 190.62 429.34 184.00 433.83 C 180.89 435.94 179.73 436.14 173.61 435.65 C 168.59 435.24 165.73 435.51 163.11 436.64 C 160.87 437.59 156.80 438.14 152.38 438.07 C 146.84 437.99 144.76 438.37 142.98 439.81 C 140.77 441.61 140.73 441.92 141.74 449.84 C 143.46 463.29 147.06 466.58 156.78 463.58 C 159.93 462.60 164.64 460.45 167.26 458.79 C 176.49 452.95 194.79 445.08 208.79 440.94 C 217.41 438.39 223.64 438.86 226.69 442.29 C 229.13 445.05 234.00 456.04 234.00 458.81 C 234.00 462.51 237.07 474.21 239.06 478.11 C 241.93 483.74 241.59 489.67 238.09 495.20 C 234.68 500.58 234.18 500.78 213.71 505.01 C 205.57 506.69 194.61 509.63 189.34 511.53 C 184.08 513.44 169.81 517.47 157.64 520.50 C 130.06 527.35 125.08 527.56 111.00 522.45 Z M 470.50 516.66 C 468.30 515.93 462.98 513.41 458.68 511.04 L 450.85 506.74 L 442.55 507.41 L 434.25 508.08 L 431.62 504.97 C 430.18 503.25 429.00 501.29 429.00 500.62 C 429.00 498.18 435.78 479.35 438.85 473.29 C 446.56 458.04 451.15 456.61 464.39 465.36 C 475.99 473.03 476.48 473.22 485.99 473.76 C 496.47 474.36 499.39 473.15 503.91 466.32 C 508.57 459.29 508.06 458.62 497.97 458.48 C 491.08 458.38 488.36 457.85 483.74 455.74 C 470.79 449.81 467.56 444.97 466.55 430.00 C 466.20 424.77 465.23 417.30 464.39 413.39 C 462.57 404.94 463.45 401.83 469.52 395.11 L 473.23 391.00 L 483.48 391.00 C 492.34 391.00 494.09 391.28 496.37 393.08 C 500.96 396.69 501.35 398.43 499.06 405.05 C 497.93 408.33 497.00 413.52 497.00 416.58 C 497.00 421.41 497.39 422.55 499.92 425.08 C 503.41 428.56 509.65 429.15 512.28 426.25 C 515.94 422.20 516.03 419.70 512.95 408.33 C 509.40 395.24 509.15 388.10 512.10 383.34 C 514.50 379.45 518.62 377.00 522.75 377.00 C 526.42 377.00 546.56 384.29 549.01 386.51 C 552.03 389.25 552.95 393.16 551.47 397.07 C 550.76 398.96 549.05 403.45 547.67 407.06 C 545.74 412.11 544.93 416.94 544.10 428.12 C 543.50 436.10 542.57 445.08 542.02 448.07 C 539.88 459.78 534.50 478.43 531.58 484.29 C 528.73 489.99 527.69 490.99 517.50 497.80 C 504.20 506.69 483.83 516.99 478.43 517.55 C 476.27 517.78 472.70 517.38 470.50 516.66 Z M 259.50 470.12 C 257.30 469.12 252.27 465.19 248.32 461.40 C 241.43 454.77 241.04 454.15 238.46 445.50 C 234.67 432.83 230.06 423.91 221.94 413.54 C 211.63 400.37 204.81 388.65 205.19 384.73 C 205.65 380.04 210.65 377.00 217.90 377.00 C 222.05 377.00 225.15 376.22 229.84 374.00 C 238.94 369.70 242.22 369.96 247.69 375.42 L 252.11 379.84 L 251.84 387.67 C 251.43 399.39 256.85 416.56 260.72 415.81 C 262.39 415.49 264.19 409.39 269.45 386.18 C 272.47 372.87 273.54 370.55 278.88 365.73 C 283.99 361.11 288.18 360.32 296.78 362.37 C 300.47 363.25 305.13 364.21 307.11 364.50 C 309.10 364.80 311.55 365.95 312.56 367.06 C 314.23 368.91 314.28 369.72 313.21 376.00 C 311.02 388.74 306.31 401.38 300.71 409.54 C 297.85 413.72 294.95 418.12 294.27 419.32 C 291.77 423.76 287.79 434.77 285.41 443.85 C 284.07 448.99 282.47 454.17 281.86 455.35 C 279.06 460.79 272.58 468.17 269.01 469.99 C 264.28 472.41 264.49 472.41 259.50 470.12 Z M 346.70 465.99 C 345.16 465.53 341.79 463.80 339.20 462.15 C 336.62 460.50 330.04 456.99 324.59 454.35 C 309.96 447.25 307.02 442.37 306.70 424.65 C 306.55 415.71 306.66 415.22 311.66 403.50 C 314.47 396.90 317.32 389.79 317.98 387.71 C 319.57 382.70 327.23 375.17 334.19 371.77 C 345.02 366.49 362.27 360.84 365.89 361.40 C 369.69 361.98 373.43 365.04 375.71 369.43 C 376.55 371.04 379.02 374.62 381.20 377.38 C 386.23 383.74 390.77 392.68 391.60 397.88 C 392.17 401.44 391.90 402.25 389.32 404.83 C 386.99 407.17 384.92 408.00 378.95 408.98 C 374.85 409.66 367.90 411.24 363.50 412.49 C 359.10 413.74 353.48 415.09 351.00 415.50 C 344.73 416.52 343.00 417.64 343.00 420.69 C 343.00 423.69 349.87 430.68 353.79 431.66 C 356.73 432.40 360.49 429.79 364.09 424.51 C 367.98 418.83 371.15 417.50 380.38 417.71 C 387.41 417.86 388.56 418.16 391.01 420.51 C 395.27 424.59 397.36 430.10 396.59 435.22 C 395.57 442.07 393.06 445.08 384.40 449.87 C 380.05 452.27 373.52 456.43 369.88 459.11 C 359.64 466.66 354.26 468.26 346.70 465.99 Z M 351.64 397.91 C 359.18 395.62 361.58 393.95 360.69 391.63 C 360.05 389.96 351.24 387.00 346.89 387.00 C 343.73 387.00 340.48 390.52 339.50 395.02 C 338.26 400.66 340.71 401.24 351.64 397.91 Z M 813.12 465.11 C 809.43 463.15 807.09 459.75 807.04 456.28 C 807.02 455.05 808.39 450.55 810.10 446.28 C 811.80 442.00 813.81 435.58 814.56 432.00 C 815.84 425.92 815.80 425.22 813.89 421.27 C 811.20 415.72 806.48 411.72 803.64 412.59 C 794.88 415.25 791.65 428.61 796.12 443.68 C 798.86 452.91 798.16 459.00 793.87 463.28 C 791.08 466.08 790.60 466.20 785.21 465.58 C 782.07 465.22 776.20 464.83 772.17 464.71 C 765.10 464.51 764.73 464.37 761.42 460.76 C 757.60 456.60 757.38 455.07 759.42 447.07 C 764.13 428.57 764.92 424.69 765.51 417.00 C 765.97 410.99 765.71 406.30 764.62 401.00 C 761.55 386.03 761.52 383.78 764.35 381.13 C 767.29 378.38 776.20 376.04 783.82 376.02 C 791.13 375.99 793.00 377.18 793.00 381.84 C 793.00 387.42 794.51 388.34 799.02 385.49 C 808.93 379.23 820.12 378.49 829.90 383.45 C 836.60 386.84 843.58 393.25 846.22 398.43 C 848.08 402.07 848.21 403.55 847.61 413.98 C 847.24 420.32 846.51 427.30 845.99 429.50 C 844.62 435.32 844.79 447.77 846.33 453.70 C 847.92 459.82 847.30 461.30 842.03 463.98 C 836.29 466.91 817.85 467.63 813.12 465.11 Z M 636.55 464.86 C 624.36 463.29 623.68 462.01 626.50 446.00 C 628.62 433.97 628.41 421.88 625.90 411.33 C 623.54 401.40 623.70 397.38 626.98 383.50 C 629.78 371.69 629.65 357.91 626.40 324.92 C 625.38 314.58 626.00 314.00 637.85 314.00 C 643.23 314.00 650.25 313.52 653.45 312.92 C 660.91 311.55 661.58 312.19 664.05 323.11 C 666.30 333.06 666.46 340.32 664.59 348.50 C 663.84 351.80 662.50 357.65 661.62 361.50 C 660.74 365.35 659.73 371.53 659.37 375.23 C 658.80 381.11 658.94 382.04 660.49 382.64 C 661.47 383.01 663.00 382.79 663.89 382.14 C 668.64 378.66 673.80 377.04 680.21 377.02 C 686.68 377.00 687.20 377.19 694.70 382.29 C 698.98 385.20 703.47 389.05 704.68 390.85 C 707.71 395.35 709.33 404.02 708.62 411.92 C 706.57 434.59 706.61 437.90 709.03 443.07 C 710.30 445.78 711.93 448.00 712.65 448.00 C 714.60 448.00 716.60 443.42 719.46 432.36 C 721.96 422.68 721.99 422.15 720.57 414.44 C 717.03 395.18 716.97 389.79 720.23 386.28 C 722.32 384.03 728.48 381.67 735.20 380.55 C 738.19 380.05 739.94 380.51 744.28 382.96 C 747.24 384.63 750.64 386.00 751.83 386.00 C 754.74 386.00 754.64 388.49 751.32 398.50 C 747.60 409.70 747.65 423.19 751.44 434.00 C 752.88 438.12 754.33 444.01 754.66 447.07 C 755.21 452.30 755.05 452.87 752.08 456.25 C 748.03 460.86 744.45 461.64 737.45 459.44 C 732.39 457.85 731.57 457.83 727.10 459.28 C 722.01 460.92 717.37 460.49 713.40 458.02 C 711.60 456.90 710.90 457.00 708.40 458.76 C 706.19 460.32 703.14 460.98 695.50 461.53 C 681.33 462.57 678.28 462.42 675.43 460.55 C 670.73 457.47 670.50 454.67 673.91 442.43 C 678.37 426.41 678.60 423.42 675.81 418.00 C 673.56 413.62 673.39 413.51 669.04 413.71 C 659.67 414.15 656.96 419.25 658.89 432.84 C 661.92 454.23 662.01 455.44 660.90 458.81 C 658.68 465.54 652.95 466.96 636.55 464.86 Z M 580.91 461.16 C 569.10 457.27 558.56 447.19 554.95 436.34 C 552.31 428.42 552.66 422.47 556.71 406.81 C 558.58 399.57 559.39 393.82 559.43 387.50 L 559.50 378.50 L 550.50 378.00 C 544.31 377.66 540.25 376.88 537.50 375.50 L 533.50 373.50 L 533.72 365.26 C 534.14 349.75 538.17 346.76 553.52 350.62 C 557.06 351.50 560.64 351.97 561.48 351.65 C 563.49 350.87 563.47 344.51 561.43 336.36 C 558.47 324.56 559.65 323.02 575.93 317.38 C 584.68 314.35 587.25 313.85 591.79 314.32 C 594.81 314.63 598.05 315.64 599.10 316.59 C 601.46 318.73 601.62 324.98 599.48 331.06 C 597.47 336.74 595.00 347.50 595.00 350.54 C 595.00 352.31 595.70 353.14 597.57 353.61 C 600.05 354.23 606.20 353.67 610.66 352.42 C 612.10 352.01 613.50 352.50 614.89 353.89 C 616.67 355.67 616.96 357.15 616.90 364.24 C 616.87 368.80 617.13 373.66 617.48 375.06 C 618.35 378.53 614.80 383.00 611.18 382.99 C 609.70 382.99 606.70 381.88 604.50 380.53 C 599.33 377.34 594.55 377.23 592.57 380.25 C 590.28 383.75 588.07 394.50 587.37 405.50 C 586.59 417.88 588.00 422.27 593.49 424.56 C 596.89 425.98 597.37 425.91 603.94 423.02 C 611.86 419.55 616.21 419.21 618.86 421.86 C 622.13 425.13 622.33 430.08 619.53 438.10 C 618.14 442.09 617.00 447.09 617.00 449.22 C 617.00 454.36 614.70 458.58 610.73 460.69 C 605.82 463.30 588.26 463.58 580.91 461.16 Z M 403.39 457.66 C 400.19 454.91 400.21 455.35 401.96 431.00 C 404.02 402.43 402.47 392.44 394.53 383.14 C 389.83 377.64 389.04 374.65 390.96 369.61 C 392.07 366.68 396.70 364.01 400.70 363.98 C 402.24 363.97 405.83 362.68 408.68 361.11 C 411.53 359.54 415.06 357.95 416.53 357.58 C 420.00 356.71 424.00 359.25 424.00 362.32 C 424.00 363.58 424.53 365.13 425.18 365.78 C 426.08 366.68 427.77 365.50 432.43 360.67 C 439.31 353.55 444.27 350.83 451.51 350.22 C 456.19 349.82 457.03 350.13 464.20 354.93 C 477.84 364.05 479.35 369.66 471.59 382.50 C 466.04 391.69 463.59 394.62 459.80 396.60 C 455.24 398.97 453.41 398.33 449.51 393.01 C 442.69 383.73 437.91 381.75 434.07 386.63 C 430.93 390.63 431.36 397.78 435.57 411.67 C 437.54 418.15 441.39 428.29 444.14 434.20 C 448.73 444.08 449.03 445.17 447.82 447.64 C 445.26 452.84 441.67 454.49 432.68 454.59 C 426.29 454.66 423.06 455.26 417.92 457.34 C 409.83 460.61 406.90 460.67 403.39 457.66 Z" stroke-linecap="round"></path>
</g>
</g>
</g>

  </svg>