<svg xmlns="http://www.w3.org/2000/svg" xmlns:xlink="http://www.w3.org/1999/xlink" width="1200px" height="1200px" viewBox="0 0 1200 1200">
    <g id="a02bb16b-0916-49bb-831c-d1295175ed3c">
<g style="">
		<g id="a02bb16b-0916-49bb-831c-d1295175ed3c-child-0">
<path style="stroke: rgb(193,193,193); stroke-opacity: 1.00; stroke-width: 0; stroke-dasharray: none; stroke-linecap: butt; stroke-dashoffset: 0; stroke-linejoin: miter; stroke-miterlimit: 4; fill: rgb(0,0,0); fill-opacity: 1.00; fill-rule: nonzero; opacity: 1;" transform="matrix(1.171874 0 0 1.171873 614.154466 559.456635) matrix(1 0 0 1 -1.276311 -1.302614)  translate(-522.802358, -476.10095)" d="M 266.00 786.88 C 252.03 789.28 236.75 790.12 228.00 788.98 C 211.81 786.86 203.09 786.29 198.00 787.04 C 194.98 787.48 185.98 788.16 178.00 788.55 C 155.84 789.64 143.57 786.29 132.77 776.19 C 127.40 771.16 125.01 767.16 121.73 757.64 C 119.93 752.45 119.58 748.95 119.45 735.00 C 119.28 717.43 119.38 717.95 111.91 694.00 C 107.86 681.03 106.98 674.66 108.04 666.18 C 109.36 655.69 111.13 651.16 123.26 627.23 C 129.31 615.28 135.16 603.70 136.25 601.50 C 139.43 595.07 158.26 567.24 165.58 558.14 C 175.21 546.19 198.01 522.95 207.98 514.92 C 212.67 511.15 222.66 504.41 230.19 499.95 C 237.72 495.48 244.61 490.72 245.50 489.36 C 246.51 487.82 247.00 485.34 246.81 482.70 L 246.50 478.50 L 239.00 478.64 C 234.88 478.71 228.02 479.11 223.76 479.52 C 216.52 480.21 207.16 479.58 185.50 476.92 C 167.19 474.68 149.06 470.49 141.27 466.70 C 114.73 453.78 100.51 435.60 98.86 412.50 C 98.10 401.76 101.93 385.78 111.44 360.00 C 114.38 352.02 118.21 341.00 119.95 335.50 C 121.69 330.00 123.73 324.15 124.48 322.50 C 125.22 320.85 126.58 316.58 127.49 313.00 C 128.40 309.42 129.73 305.60 130.43 304.50 C 131.14 303.40 132.48 299.88 133.40 296.68 C 135.34 290.02 140.78 279.31 150.26 263.48 C 155.60 254.55 158.92 250.44 167.69 241.89 C 173.65 236.08 180.32 230.13 182.51 228.67 C 184.71 227.21 187.62 225.20 189.00 224.19 C 200.58 215.73 220.37 204.81 230.57 201.26 C 238.22 198.59 249.14 195.81 257.50 194.41 C 259.68 194.04 287.94 187.55 305.50 183.38 C 326.98 178.28 368.07 177.43 400.12 181.41 C 410.78 182.73 423.24 184.11 427.82 184.48 C 432.40 184.85 438.47 185.84 441.31 186.69 C 448.48 188.81 470.96 199.91 480.00 205.78 C 484.12 208.46 491.77 213.28 497.00 216.49 C 502.23 219.70 508.30 223.77 510.50 225.53 C 521.75 234.52 525.14 234.99 529.53 228.20 C 533.67 221.79 541.09 218.08 552.24 216.85 C 556.78 216.35 564.10 215.54 568.50 215.04 C 578.37 213.94 583.72 211.70 593.17 204.71 C 601.47 198.57 607.60 191.79 614.27 181.37 C 620.30 171.94 623.75 168.57 630.71 165.27 C 639.84 160.95 650.47 162.10 663.70 168.85 C 670.81 172.48 676.48 181.73 677.64 191.61 C 678.00 194.67 678.83 197.38 679.48 197.63 C 682.16 198.66 690.91 195.64 697.07 191.57 C 705.13 186.24 710.55 183.45 714.51 182.59 C 719.04 181.62 728.71 185.32 733.30 189.78 C 738.54 194.87 740.39 198.14 743.48 207.73 C 745.85 215.08 746.69 216.43 751.32 220.36 C 754.17 222.78 758.99 226.34 762.04 228.27 C 770.13 233.41 775.00 239.16 775.00 243.55 C 775.00 248.07 773.00 251.91 768.68 255.70 C 765.81 258.22 742.05 270.49 728.75 276.32 C 724.26 278.29 724.07 279.93 727.84 284.14 C 731.06 287.75 735.81 288.80 749.38 288.93 C 753.72 288.97 758.90 289.42 760.88 289.93 C 762.87 290.44 767.88 291.58 772.00 292.47 C 780.05 294.20 795.30 298.78 814.38 305.21 C 820.92 307.41 829.47 310.03 833.38 311.02 C 850.06 315.25 861.72 319.35 871.78 324.52 C 889.51 333.64 895.72 337.70 912.64 351.21 C 921.97 358.66 925.51 363.08 927.97 370.39 C 930.61 378.20 930.53 383.59 927.62 394.17 C 924.33 406.13 912.78 430.61 897.09 458.87 C 890.90 470.03 888.91 476.29 890.63 479.25 C 891.11 480.07 896.98 486.53 903.68 493.62 C 920.30 511.20 922.01 513.65 931.58 533.58 C 945.16 561.85 947.47 570.65 946.71 591.14 C 945.99 610.81 942.68 623.99 934.33 640.50 C 928.39 652.24 926.07 655.60 913.84 670.25 C 890.66 698.00 882.93 704.43 862.50 712.99 C 842.67 721.29 832.05 726.53 825.05 731.46 C 810.39 741.78 802.37 744.02 780.05 744.05 C 770.63 744.07 762.49 743.80 761.95 743.47 C 761.40 743.13 751.41 741.31 739.73 739.43 C 702.00 733.33 696.53 732.19 677.00 726.36 C 651.04 718.60 640.65 714.38 618.75 702.73 C 606.54 696.24 602.83 695.23 599.44 697.45 C 596.85 699.14 596.80 699.36 597.41 706.84 C 599.20 728.78 599.20 729.72 597.46 737.61 C 594.48 751.19 590.13 757.95 579.50 765.53 C 565.00 775.88 556.98 777.31 528.94 774.54 C 514.93 773.15 509.96 773.03 503.68 773.91 C 492.42 775.48 461.74 775.22 446.00 773.41 C 437.79 772.47 419.18 771.66 398.50 771.34 C 363.68 770.80 363.06 770.84 340.00 774.94 C 336.98 775.48 328.20 776.85 320.50 777.99 C 312.80 779.13 304.92 780.47 303.00 780.99 C 301.08 781.50 294.55 782.59 288.50 783.41 C 282.45 784.24 272.33 785.80 266.00 786.88 Z M 163.41 762.65 C 169.35 764.16 178.38 763.83 192.88 761.55 C 202.63 760.02 204.10 760.03 216.88 761.71 C 237.46 764.42 248.44 763.95 277.50 759.13 C 291.25 756.84 304.30 754.72 306.50 754.40 C 312.02 753.61 335.10 749.25 343.00 747.51 C 364.90 742.67 401.21 742.58 451.00 747.24 C 458.58 747.95 478.53 748.50 496.50 748.50 C 514.10 748.50 534.21 748.91 541.18 749.40 C 551.01 750.10 554.60 750.01 557.18 748.99 C 562.54 746.88 566.86 743.18 569.23 738.69 C 571.96 733.54 572.18 723.69 570.13 699.00 C 569.38 689.92 569.05 679.35 569.40 675.50 C 570.06 668.17 572.37 646.80 573.89 634.00 C 576.41 612.68 577.24 595.45 576.03 589.49 C 573.89 578.94 568.07 572.34 557.00 567.90 C 551.60 565.74 525.31 566.09 517.50 568.44 C 514.20 569.43 511.05 570.58 510.50 570.99 C 509.95 571.40 507.70 572.31 505.50 573.00 C 503.30 573.69 501.08 574.51 500.56 574.81 C 500.05 575.10 494.65 577.10 488.56 579.24 C 457.96 590.00 454.69 590.49 413.40 590.50 C 378.70 590.50 377.00 590.29 377.00 586.08 C 377.00 581.66 412.51 554.81 430.67 545.50 C 461.13 529.89 469.73 523.40 490.06 500.71 C 505.05 483.98 515.15 474.16 528.00 463.81 C 539.35 454.67 548.09 441.81 554.03 425.50 C 557.45 416.11 558.35 408.78 558.39 390.00 C 558.42 373.79 558.09 369.83 555.71 358.00 C 554.22 350.58 552.60 338.20 552.11 330.50 C 551.10 314.60 548.95 303.81 545.38 296.76 C 540.57 287.26 531.20 275.33 524.28 269.88 C 520.55 266.94 513.90 261.36 509.50 257.49 C 489.88 240.22 471.33 227.37 452.47 217.97 L 439.50 211.51 L 415.00 210.91 C 395.89 210.43 387.89 209.81 378.64 208.08 C 365.21 205.57 357.89 205.61 337.50 208.34 C 330.35 209.30 320.45 210.55 315.50 211.13 C 310.55 211.71 304.70 212.60 302.50 213.09 C 300.30 213.59 294.87 214.67 290.44 215.49 C 286.01 216.31 279.71 217.83 276.44 218.87 C 268.52 221.39 254.11 225.46 245.60 227.58 C 241.80 228.53 237.53 229.86 236.10 230.54 C 234.67 231.22 229.00 233.71 223.50 236.07 C 198.42 246.83 180.21 261.89 169.78 280.50 C 165.04 288.96 162.16 295.02 156.03 309.50 C 152.15 318.67 134.30 373.05 132.40 381.50 C 132.03 383.15 131.40 384.95 130.99 385.50 C 129.47 387.59 127.06 396.79 126.14 404.00 C 125.06 412.52 125.83 419.86 128.34 425.07 C 133.83 436.48 155.18 447.47 180.50 451.92 C 189.80 453.56 217.95 455.42 234.00 455.46 C 241.98 455.48 251.88 456.11 256.00 456.87 C 266.25 458.73 273.24 457.83 282.18 453.48 C 291.17 449.10 296.48 444.08 298.48 438.07 C 299.31 435.55 300.89 427.04 301.98 419.15 C 304.28 402.58 307.08 392.18 310.75 386.50 C 315.31 379.45 326.22 368.86 331.50 366.37 C 341.74 361.55 352.60 364.32 361.27 373.95 C 375.87 390.19 380.15 418.28 370.43 434.03 C 366.96 439.66 359.00 447.85 348.36 456.74 C 337.80 465.56 311.77 485.75 306.00 489.60 C 304.08 490.88 300.57 493.30 298.21 494.97 C 291.67 499.60 285.30 502.54 276.50 505.00 C 264.07 508.47 241.98 520.61 224.50 533.58 C 216.73 539.35 197.82 557.60 191.16 565.77 C 188.79 568.67 182.62 577.67 177.43 585.77 C 172.25 593.87 167.66 600.95 167.23 601.50 C 166.80 602.05 163.94 606.78 160.88 612.00 C 157.82 617.22 151.56 627.58 146.98 635.00 C 133.88 656.20 133.01 658.21 133.00 667.12 C 133.00 672.55 133.72 676.95 135.50 682.40 C 136.88 686.62 138.00 691.12 138.00 692.42 C 138.00 693.72 139.08 698.54 140.40 703.14 C 141.87 708.25 143.24 716.88 143.94 725.35 C 146.21 753.15 149.30 759.06 163.41 762.65 Z M 768.93 717.04 C 781.23 718.07 794.16 717.45 800.50 715.54 C 803.25 714.72 810.22 711.08 816.00 707.46 C 825.95 701.22 845.84 691.00 848.03 691.00 C 849.96 691.00 864.51 683.20 868.50 680.02 C 873.90 675.72 882.80 667.06 886.65 662.35 C 888.38 660.23 892.94 654.72 896.79 650.10 C 912.78 630.89 921.03 609.07 920.98 586.12 C 920.95 572.28 916.19 554.60 909.40 543.10 C 907.59 540.02 905.34 536.15 904.40 534.50 C 902.02 530.27 894.96 521.21 888.86 514.53 C 885.20 510.53 881.36 507.69 875.86 504.93 C 871.56 502.77 867.43 501.00 866.68 501.00 C 865.93 501.00 862.66 499.69 859.41 498.09 C 841.47 489.25 814.61 479.77 796.50 475.89 C 791.00 474.71 783.80 473.09 780.50 472.30 C 777.20 471.51 772.47 470.50 770.00 470.06 C 761.18 468.48 746.45 464.72 743.76 463.35 C 739.02 460.94 734.16 456.03 732.98 452.45 C 731.99 449.44 732.14 448.47 734.17 444.79 C 735.45 442.47 738.53 439.21 741.00 437.54 C 745.25 434.67 746.03 434.50 755.00 434.56 C 768.09 434.64 785.46 439.69 804.57 448.97 C 817.79 455.39 818.96 456.19 823.89 462.27 C 827.57 466.81 830.69 469.49 834.32 471.24 C 842.08 474.97 844.57 475.30 850.35 473.38 C 858.06 470.82 864.31 463.84 870.85 450.45 C 873.80 444.43 880.38 432.30 885.47 423.50 C 904.06 391.39 905.59 387.22 902.86 376.37 C 900.74 367.94 894.50 362.60 875.35 352.87 C 856.96 343.52 840.81 337.53 829.71 335.96 C 816.47 334.08 809.13 332.05 779.00 321.91 C 765.78 317.46 757.74 316.00 746.54 316.00 C 726.58 316.00 711.95 320.39 678.00 336.56 C 649.67 350.05 637.97 357.06 630.98 364.70 C 623.22 373.19 617.74 383.81 613.82 398.00 C 612.68 402.12 609.57 412.16 606.90 420.29 C 601.77 435.93 600.18 444.32 599.30 460.37 C 598.76 470.12 599.19 472.91 602.65 482.35 C 606.01 491.51 619.55 507.20 630.15 514.21 C 641.54 521.75 660.12 527.81 689.49 533.56 C 703.86 536.37 714.51 539.21 732.50 545.03 C 739.10 547.16 746.53 549.19 749.00 549.54 C 757.92 550.80 765.76 553.96 768.94 557.58 C 772.87 562.06 774.80 565.87 775.57 570.68 C 776.14 574.27 775.86 574.90 772.02 578.74 C 765.50 585.27 759.58 587.00 743.79 587.00 L 730.65 587.00 L 718.81 581.92 C 699.24 573.52 694.56 570.52 682.00 558.37 C 670.16 546.91 663.59 542.60 656.14 541.41 C 647.38 540.01 630.79 551.81 625.48 563.21 C 624.13 566.12 623.02 569.10 623.01 569.83 C 622.99 572.52 615.60 583.70 609.14 590.81 C 601.24 599.52 591.04 612.17 591.02 613.31 C 591.01 613.75 588.75 617.62 586.00 621.91 C 581.12 629.51 581.00 629.89 581.00 637.28 C 581.00 641.46 581.42 645.97 581.93 647.32 C 584.76 654.75 600.87 666.42 616.81 672.59 C 622.14 674.65 627.99 677.17 629.81 678.18 C 631.63 679.20 636.23 681.80 640.04 683.95 C 647.07 687.94 663.45 695.61 668.00 697.05 C 688.04 703.38 703.47 707.15 719.00 709.50 C 724.22 710.29 734.53 711.84 741.90 712.95 C 749.27 714.06 756.22 715.25 757.33 715.61 C 758.45 715.96 763.67 716.61 768.93 717.04 Z M 597.85 335.85 C 602.06 340.06 603.74 338.61 611.41 324.17 C 618.70 310.45 626.44 303.15 642.12 295.27 C 648.93 291.84 657.42 288.27 661.00 287.33 C 667.62 285.60 678.59 285.21 685.14 286.49 C 689.13 287.26 693.21 285.34 695.11 281.79 C 697.06 278.15 691.05 271.61 679.50 264.82 C 663.41 255.35 653.08 246.97 649.79 240.74 C 647.81 236.97 647.56 235.05 647.57 223.50 C 647.57 216.35 647.97 206.12 648.44 200.78 C 649.35 190.33 648.69 188.00 644.79 188.00 C 641.52 188.00 638.21 191.37 629.34 203.72 C 616.03 222.27 613.45 224.90 603.40 230.17 C 595.16 234.49 588.25 236.95 578.69 238.95 C 576.59 239.39 569.97 239.52 563.96 239.24 C 552.50 238.69 550.71 239.17 549.69 243.06 C 548.94 245.96 552.90 250.14 559.42 253.29 C 562.49 254.78 567.41 257.17 570.36 258.59 C 573.31 260.02 576.91 262.29 578.36 263.63 C 582.56 267.52 589.12 276.89 593.27 284.90 L 597.10 292.31 L 596.41 313.01 C 595.72 333.31 595.75 333.75 597.85 335.85 Z M 699.61 259.47 C 702.61 262.47 704.87 261.44 711.22 254.19 C 714.87 250.02 718.34 248.40 725.45 247.53 C 730.36 246.93 731.98 246.22 734.77 243.43 C 736.63 241.57 737.86 239.58 737.51 239.01 C 737.15 238.44 735.21 237.11 733.18 236.06 C 726.12 232.39 723.07 228.92 721.48 222.70 C 720.67 219.51 719.98 215.46 719.96 213.70 C 719.94 211.83 718.91 209.26 717.48 207.50 C 714.35 203.68 712.94 204.48 708.68 212.48 C 704.97 219.46 700.98 222.48 694.30 223.37 C 684.07 224.73 679.69 230.61 686.09 234.39 C 693.02 238.48 695.87 241.89 696.49 246.81 C 697.70 256.29 698.11 257.97 699.61 259.47 Z" stroke-linecap="round"></path>
</g>
		<g id="a02bb16b-0916-49bb-831c-d1295175ed3c-child-1">
<path style="stroke: rgb(193,193,193); stroke-opacity: 1.00; stroke-width: 0; stroke-dasharray: none; stroke-linecap: butt; stroke-dashoffset: 0; stroke-linejoin: miter; stroke-miterlimit: 4; fill: rgb(85,198,197); fill-opacity: 1.00; fill-rule: nonzero; opacity: 1;" transform="matrix(1.171874 0 0 1.171873 614.154466 559.456635) matrix(1 0 0 1 0 0)  translate(-524.078669, -477.403564)" d="M 222.50 809.76 C 211.74 808.45 203.83 808.38 182.42 809.42 C 166.92 810.17 162.94 810.05 154.42 808.54 C 132.01 804.57 117.18 794.34 106.53 775.50 C 101.05 765.79 98.65 754.14 98.51 736.50 C 98.44 728.25 98.04 720.38 97.62 719.00 C 91.68 699.67 89.47 693.32 88.34 692.39 C 86.71 691.04 86.63 685.22 88.08 672.27 C 89.54 659.14 89.80 658.43 105.00 626.50 C 123.03 588.64 139.48 561.31 158.58 537.50 C 164.97 529.53 179.41 514.56 190.25 504.65 L 194.01 501.22 L 190.25 500.57 C 173.69 497.71 158.75 494.50 152.70 492.52 C 141.08 488.70 119.83 478.13 109.72 471.14 C 104.23 467.34 93.08 455.71 89.54 450.08 C 80.91 436.37 78.15 415.40 82.07 393.37 C 83.37 386.02 89.92 364.53 94.67 352.00 C 96.65 346.77 99.29 338.90 100.53 334.50 C 102.94 326.01 112.03 300.20 114.98 293.50 C 115.95 291.30 117.32 287.70 118.01 285.50 C 120.95 276.18 133.62 254.72 144.56 240.50 C 155.87 225.81 175.87 208.76 192.27 199.83 C 198.45 196.47 206.20 192.05 209.50 190.02 C 218.50 184.46 233.36 179.76 258.50 174.50 C 262.35 173.70 266.85 172.60 268.50 172.06 C 270.15 171.53 275.24 170.63 279.81 170.07 C 284.37 169.50 292.70 167.70 298.31 166.06 C 312.23 161.99 320.14 161.18 351.61 160.55 C 385.67 159.88 409.48 161.50 431.50 166.00 C 445.31 168.82 448.97 169.86 456.00 172.97 C 473.46 180.69 481.22 184.77 489.50 190.62 C 498.56 197.00 517.75 208.00 519.84 208.00 C 520.97 208.00 524.02 206.87 526.62 205.49 C 534.26 201.42 543.39 199.08 555.84 197.99 C 562.25 197.42 568.49 196.74 569.70 196.48 C 572.17 195.93 589.56 181.87 593.30 177.40 C 594.64 175.81 597.33 171.99 599.29 168.91 C 602.94 163.19 611.37 155.24 618.50 150.80 C 626.26 145.97 633.38 144.00 643.06 144.00 C 661.57 144.00 679.73 151.70 690.04 163.93 L 694.16 168.82 L 698.93 166.34 C 704.95 163.22 716.71 162.12 723.71 164.02 C 734.36 166.91 747.18 175.25 751.05 181.81 C 752.23 183.82 754.54 188.84 756.18 192.98 C 759.68 201.79 760.42 202.73 769.00 209.09 C 783.89 220.14 787.93 223.74 790.80 228.50 C 793.75 233.40 797.00 244.20 797.00 249.10 C 797.00 254.67 793.79 263.60 789.96 268.67 C 787.78 271.56 786.00 274.15 786.00 274.43 C 786.00 274.71 789.15 275.86 793.00 276.97 C 796.85 278.09 803.26 279.95 807.25 281.10 C 811.24 282.26 816.98 284.43 820.02 285.93 C 823.05 287.44 828.23 289.48 831.52 290.48 C 856.73 298.10 867.07 301.96 882.00 309.31 C 891.08 313.78 900.30 318.63 902.50 320.08 C 904.70 321.54 908.47 323.72 910.87 324.94 C 913.27 326.16 920.77 332.30 927.53 338.58 C 939.01 349.25 940.16 350.68 945.03 360.16 L 950.25 370.32 L 949.79 383.41 C 949.37 395.27 948.97 397.54 945.56 407.50 C 939.01 426.65 926.66 454.14 922.39 459.06 C 921.64 459.92 919.71 463.03 918.10 465.98 C 915.30 471.10 915.25 471.45 916.80 473.92 C 918.16 476.06 931.69 492.95 939.21 501.88 C 941.18 504.23 954.00 530.30 954.00 531.97 C 954.00 532.45 954.34 532.98 954.75 533.17 C 956.32 533.86 961.31 545.48 964.27 555.29 C 967.14 564.82 967.37 566.77 967.73 584.50 C 968.14 604.84 967.50 610.10 962.75 625.50 C 957.58 642.25 946.67 663.44 937.11 675.30 C 921.94 694.12 903.68 713.38 895.50 719.20 C 889.90 723.19 875.11 730.75 867.50 733.52 C 864.75 734.53 862.05 735.67 861.50 736.07 C 860.95 736.47 857.73 737.95 854.35 739.36 C 850.97 740.78 844.78 744.40 840.59 747.40 C 830.23 754.84 819.35 759.95 808.59 762.44 C 790.42 766.65 772.62 766.49 746.50 761.90 C 740.45 760.84 731.22 759.30 726.00 758.49 C 697.54 754.05 683.08 750.94 668.00 745.99 C 662.78 744.28 655.80 742.05 652.50 741.04 C 642.38 737.95 632.68 734.05 628.90 731.55 C 625.84 729.53 624.94 729.35 622.93 730.35 C 620.57 731.52 620.16 732.58 618.06 742.93 C 615.73 754.37 608.13 767.91 599.07 776.75 C 594.27 781.43 584.10 789.00 582.61 789.00 C 582.31 789.00 579.48 790.18 576.33 791.62 C 566.24 796.24 556.08 797.37 535.50 796.18 C 525.60 795.61 499.73 795.15 478.00 795.16 C 454.31 795.18 436.10 794.76 432.50 794.12 C 424.55 792.71 394.92 790.82 383.09 790.98 C 371.47 791.14 353.33 792.68 351.76 793.65 C 351.12 794.04 345.40 795.14 339.05 796.08 C 332.70 797.02 322.23 798.74 315.80 799.91 C 304.31 802.00 293.40 803.77 275.50 806.48 C 270.55 807.23 262.23 808.55 257.00 809.42 C 246.58 811.15 234.83 811.26 222.50 809.76 Z M 266.00 786.88 C 272.33 785.80 282.45 784.24 288.50 783.41 C 294.55 782.59 301.08 781.50 303.00 780.99 C 304.92 780.47 312.80 779.13 320.50 777.99 C 328.20 776.85 336.98 775.48 340.00 774.94 C 363.06 770.84 363.68 770.80 398.50 771.34 C 419.18 771.66 437.79 772.47 446.00 773.41 C 461.74 775.22 492.42 775.48 503.68 773.91 C 509.96 773.03 514.93 773.15 528.94 774.54 C 556.98 777.31 565.00 775.88 579.50 765.53 C 590.13 757.95 594.48 751.19 597.46 737.61 C 599.20 729.72 599.20 728.78 597.41 706.84 C 596.80 699.36 596.85 699.14 599.44 697.45 C 602.83 695.23 606.54 696.24 618.75 702.73 C 640.65 714.38 651.04 718.60 677.00 726.36 C 696.53 732.19 702.00 733.33 739.73 739.43 C 751.41 741.31 761.40 743.13 761.95 743.47 C 762.49 743.80 770.63 744.07 780.05 744.05 C 802.37 744.02 810.39 741.78 825.05 731.46 C 832.05 726.53 842.67 721.29 862.50 712.99 C 882.93 704.43 890.66 698.00 913.84 670.25 C 926.07 655.60 928.39 652.24 934.33 640.50 C 942.68 623.99 945.99 610.81 946.71 591.14 C 947.47 570.65 945.16 561.85 931.58 533.58 C 922.01 513.65 920.30 511.20 903.68 493.62 C 896.98 486.53 891.11 480.07 890.63 479.25 C 888.91 476.29 890.90 470.03 897.09 458.87 C 912.78 430.61 924.33 406.13 927.62 394.17 C 930.53 383.59 930.61 378.20 927.97 370.39 C 925.51 363.08 921.97 358.66 912.64 351.21 C 895.72 337.70 889.51 333.64 871.78 324.52 C 861.72 319.35 850.06 315.25 833.38 311.02 C 829.47 310.03 820.92 307.41 814.38 305.21 C 795.30 298.78 780.05 294.20 772.00 292.47 C 767.88 291.58 762.87 290.44 760.88 289.93 C 758.90 289.42 753.72 288.97 749.38 288.93 C 735.81 288.80 731.06 287.75 727.84 284.14 C 724.07 279.93 724.26 278.29 728.75 276.32 C 742.05 270.49 765.81 258.22 768.68 255.70 C 773.00 251.91 775.00 248.07 775.00 243.55 C 775.00 239.16 770.13 233.41 762.04 228.27 C 758.99 226.34 754.17 222.78 751.32 220.36 C 746.69 216.43 745.85 215.08 743.48 207.73 C 740.39 198.14 738.54 194.87 733.30 189.78 C 728.71 185.32 719.04 181.62 714.51 182.59 C 710.55 183.45 705.13 186.24 697.07 191.57 C 690.91 195.64 682.16 198.66 679.48 197.63 C 678.83 197.38 678.00 194.67 677.64 191.61 C 676.48 181.73 670.81 172.48 663.70 168.85 C 650.47 162.10 639.84 160.95 630.71 165.27 C 623.75 168.57 620.30 171.94 614.27 181.37 C 607.60 191.79 601.47 198.57 593.17 204.71 C 583.72 211.70 578.37 213.94 568.50 215.04 C 564.10 215.54 556.78 216.35 552.24 216.85 C 541.09 218.08 533.67 221.79 529.53 228.20 C 525.14 234.99 521.75 234.52 510.50 225.53 C 508.30 223.77 502.23 219.70 497.00 216.49 C 491.77 213.28 484.12 208.46 480.00 205.78 C 470.96 199.91 448.48 188.81 441.31 186.69 C 438.47 185.84 432.40 184.85 427.82 184.48 C 423.24 184.11 410.78 182.73 400.12 181.41 C 368.07 177.43 326.98 178.28 305.50 183.38 C 287.94 187.55 259.68 194.04 257.50 194.41 C 249.14 195.81 238.22 198.59 230.57 201.26 C 220.37 204.81 200.58 215.73 189.00 224.19 C 187.62 225.20 184.71 227.21 182.51 228.67 C 180.32 230.13 173.65 236.08 167.69 241.89 C 158.92 250.44 155.60 254.55 150.26 263.48 C 140.78 279.31 135.34 290.02 133.40 296.68 C 132.48 299.88 131.14 303.40 130.43 304.50 C 129.73 305.60 128.40 309.42 127.49 313.00 C 126.58 316.58 125.22 320.85 124.48 322.50 C 123.73 324.15 121.69 330.00 119.95 335.50 C 118.21 341.00 114.38 352.02 111.44 360.00 C 101.93 385.78 98.10 401.76 98.86 412.50 C 100.51 435.60 114.73 453.78 141.27 466.70 C 149.06 470.49 167.19 474.68 185.50 476.92 C 207.16 479.58 216.52 480.21 223.76 479.52 C 228.02 479.11 234.88 478.71 239.00 478.64 L 246.50 478.50 L 246.81 482.70 C 247.00 485.34 246.51 487.82 245.50 489.36 C 244.61 490.72 237.72 495.48 230.19 499.95 C 222.66 504.41 212.67 511.15 207.98 514.92 C 198.01 522.95 175.21 546.19 165.58 558.14 C 158.26 567.24 139.43 595.07 136.25 601.50 C 135.16 603.70 129.31 615.28 123.26 627.23 C 111.13 651.16 109.36 655.69 108.04 666.18 C 106.98 674.66 107.86 681.03 111.91 694.00 C 119.38 717.95 119.28 717.43 119.45 735.00 C 119.58 748.95 119.93 752.45 121.73 757.64 C 125.01 767.16 127.40 771.16 132.77 776.19 C 143.57 786.29 155.84 789.64 178.00 788.55 C 185.98 788.16 194.98 787.48 198.00 787.04 C 203.09 786.29 211.81 786.86 228.00 788.98 C 236.75 790.12 252.03 789.28 266.00 786.88 Z" stroke-linecap="round"></path>
</g>
		<g id="a02bb16b-0916-49bb-831c-d1295175ed3c-child-2">
<path style="stroke: rgb(193,193,193); stroke-opacity: 1.00; stroke-width: 0; stroke-dasharray: none; stroke-linecap: butt; stroke-dashoffset: 0; stroke-linejoin: miter; stroke-miterlimit: 4; fill: rgb(254,231,119); fill-opacity: 1.00; fill-rule: nonzero; opacity: 1;" transform="matrix(1.171874 0 0 1.171873 614.154466 559.456635) matrix(1 0 0 1 119.505743 -214.445987)  translate(-643.584411, -262.957578)" d="M 597.85 335.85 C 595.75 333.75 595.72 333.31 596.41 313.01 L 597.10 292.31 L 593.27 284.90 C 589.12 276.89 582.56 267.52 578.36 263.63 C 576.91 262.29 573.31 260.02 570.36 258.59 C 567.41 257.17 562.49 254.78 559.42 253.29 C 552.90 250.14 548.94 245.96 549.69 243.06 C 550.71 239.17 552.50 238.69 563.96 239.24 C 569.97 239.52 576.59 239.39 578.69 238.95 C 588.25 236.95 595.16 234.49 603.40 230.17 C 613.45 224.90 616.03 222.27 629.34 203.72 C 638.21 191.37 641.52 188.00 644.79 188.00 C 648.69 188.00 649.35 190.33 648.44 200.78 C 647.97 206.12 647.57 216.35 647.57 223.50 C 647.56 235.05 647.81 236.97 649.79 240.74 C 653.08 246.97 663.41 255.35 679.50 264.82 C 691.05 271.61 697.06 278.15 695.11 281.79 C 693.21 285.34 689.13 287.26 685.14 286.49 C 678.59 285.21 667.62 285.60 661.00 287.33 C 657.42 288.27 648.93 291.84 642.12 295.27 C 626.44 303.15 618.70 310.45 611.41 324.17 C 603.74 338.61 602.06 340.06 597.85 335.85 Z M 699.61 259.47 C 698.11 257.97 697.70 256.29 696.49 246.81 C 695.87 241.89 693.02 238.48 686.09 234.39 C 679.69 230.61 684.07 224.73 694.30 223.37 C 700.98 222.48 704.97 219.46 708.68 212.48 C 712.94 204.48 714.35 203.68 717.48 207.50 C 718.91 209.26 719.94 211.83 719.96 213.70 C 719.98 215.46 720.67 219.51 721.48 222.70 C 723.07 228.92 726.12 232.39 733.18 236.06 C 735.21 237.11 737.15 238.44 737.51 239.01 C 737.86 239.58 736.63 241.57 734.77 243.43 C 731.98 246.22 730.36 246.93 725.45 247.53 C 718.34 248.40 714.87 250.02 711.22 254.19 C 704.87 261.44 702.61 262.47 699.61 259.47 Z" stroke-linecap="round"></path>
</g>
		<g id="a02bb16b-0916-49bb-831c-d1295175ed3c-child-3">
<path style="stroke: rgb(193,193,193); stroke-opacity: 1.00; stroke-width: 0; stroke-dasharray: none; stroke-linecap: butt; stroke-dashoffset: 0; stroke-linejoin: miter; stroke-miterlimit: 4; fill: rgb(254,254,254); fill-opacity: 1.00; fill-rule: nonzero; opacity: 1;" transform="matrix(1.171874 0 0 1.171873 614.154466 559.456635) matrix(1 0 0 1 -0.756374 7.504093)  translate(-523.322295, -484.907658)" d="M 163.41 762.65 C 149.30 759.06 146.21 753.15 143.94 725.35 C 143.24 716.88 141.87 708.25 140.40 703.14 C 139.08 698.54 138.00 693.72 138.00 692.42 C 138.00 691.12 136.88 686.62 135.50 682.40 C 133.72 676.95 133.00 672.55 133.00 667.12 C 133.01 658.21 133.88 656.20 146.98 635.00 C 151.56 627.58 157.82 617.22 160.88 612.00 C 163.94 606.78 166.80 602.05 167.23 601.50 C 167.66 600.95 172.25 593.87 177.43 585.77 C 182.62 577.67 188.79 568.67 191.16 565.77 C 197.82 557.60 216.73 539.35 224.50 533.58 C 241.98 520.61 264.07 508.47 276.50 505.00 C 285.30 502.54 291.67 499.60 298.21 494.97 C 300.57 493.30 304.08 490.88 306.00 489.60 C 311.77 485.75 337.80 465.56 348.36 456.74 C 359.00 447.85 366.96 439.66 370.43 434.03 C 380.15 418.28 375.87 390.19 361.27 373.95 C 352.60 364.32 341.74 361.55 331.50 366.37 C 326.22 368.86 315.31 379.45 310.75 386.50 C 307.08 392.18 304.28 402.58 301.98 419.15 C 300.89 427.04 299.31 435.55 298.48 438.07 C 296.48 444.08 291.17 449.10 282.18 453.48 C 273.24 457.83 266.25 458.73 256.00 456.87 C 251.88 456.11 241.98 455.48 234.00 455.46 C 217.95 455.42 189.80 453.56 180.50 451.92 C 155.18 447.47 133.83 436.48 128.34 425.07 C 125.83 419.86 125.06 412.52 126.14 404.00 C 127.06 396.79 129.47 387.59 130.99 385.50 C 131.40 384.95 132.03 383.15 132.40 381.50 C 134.30 373.05 152.15 318.67 156.03 309.50 C 162.16 295.02 165.04 288.96 169.78 280.50 C 180.21 261.89 198.42 246.83 223.50 236.07 C 229.00 233.71 234.67 231.22 236.10 230.54 C 237.53 229.86 241.80 228.53 245.60 227.58 C 254.11 225.46 268.52 221.39 276.44 218.87 C 279.71 217.83 286.01 216.31 290.44 215.49 C 294.87 214.67 300.30 213.59 302.50 213.09 C 304.70 212.60 310.55 211.71 315.50 211.13 C 320.45 210.55 330.35 209.30 337.50 208.34 C 357.89 205.61 365.21 205.57 378.64 208.08 C 387.89 209.81 395.89 210.43 415.00 210.91 L 439.50 211.51 L 452.47 217.97 C 471.33 227.37 489.88 240.22 509.50 257.49 C 513.90 261.36 520.55 266.94 524.28 269.88 C 531.20 275.33 540.57 287.26 545.38 296.76 C 548.95 303.81 551.10 314.60 552.11 330.50 C 552.60 338.20 554.22 350.58 555.71 358.00 C 558.09 369.83 558.42 373.79 558.39 390.00 C 558.35 408.78 557.45 416.11 554.03 425.50 C 548.09 441.81 539.35 454.67 528.00 463.81 C 515.15 474.16 505.05 483.98 490.06 500.71 C 469.73 523.40 461.13 529.89 430.67 545.50 C 412.51 554.81 377.00 581.66 377.00 586.08 C 377.00 590.29 378.70 590.50 413.40 590.50 C 454.69 590.49 457.96 590.00 488.56 579.24 C 494.65 577.10 500.05 575.10 500.56 574.81 C 501.08 574.51 503.30 573.69 505.50 573.00 C 507.70 572.31 509.95 571.40 510.50 570.99 C 511.05 570.58 514.20 569.43 517.50 568.44 C 525.31 566.09 551.60 565.74 557.00 567.90 C 568.07 572.34 573.89 578.94 576.03 589.49 C 577.24 595.45 576.41 612.68 573.89 634.00 C 572.37 646.80 570.06 668.17 569.40 675.50 C 569.05 679.35 569.38 689.92 570.13 699.00 C 572.18 723.69 571.96 733.54 569.23 738.69 C 566.86 743.18 562.54 746.88 557.18 748.99 C 554.60 750.01 551.01 750.10 541.18 749.40 C 534.21 748.91 514.10 748.50 496.50 748.50 C 478.53 748.50 458.58 747.95 451.00 747.24 C 401.21 742.58 364.90 742.67 343.00 747.51 C 335.10 749.25 312.02 753.61 306.50 754.40 C 304.30 754.72 291.25 756.84 277.50 759.13 C 248.44 763.95 237.46 764.42 216.88 761.71 C 204.10 760.03 202.63 760.02 192.88 761.55 C 178.38 763.83 169.35 764.16 163.41 762.65 Z M 768.93 717.04 C 763.67 716.61 758.45 715.96 757.33 715.61 C 756.22 715.25 749.27 714.06 741.90 712.95 C 734.53 711.84 724.22 710.29 719.00 709.50 C 703.47 707.15 688.04 703.38 668.00 697.05 C 663.45 695.61 647.07 687.94 640.04 683.95 C 636.23 681.80 631.63 679.20 629.81 678.18 C 627.99 677.17 622.14 674.65 616.81 672.59 C 600.87 666.42 584.76 654.75 581.93 647.32 C 581.42 645.97 581.00 641.46 581.00 637.28 C 581.00 629.89 581.12 629.51 586.00 621.91 C 588.75 617.62 591.01 613.75 591.02 613.31 C 591.04 612.17 601.24 599.52 609.14 590.81 C 615.60 583.70 622.99 572.52 623.01 569.83 C 623.02 569.10 624.13 566.12 625.48 563.21 C 630.79 551.81 647.38 540.01 656.14 541.41 C 663.59 542.60 670.16 546.91 682.00 558.37 C 694.56 570.52 699.24 573.52 718.81 581.92 L 730.65 587.00 L 743.79 587.00 C 759.58 587.00 765.50 585.27 772.02 578.74 C 775.86 574.90 776.14 574.27 775.57 570.68 C 774.80 565.87 772.87 562.06 768.94 557.58 C 765.76 553.96 757.92 550.80 749.00 549.54 C 746.53 549.19 739.10 547.16 732.50 545.03 C 714.51 539.21 703.86 536.37 689.49 533.56 C 660.12 527.81 641.54 521.75 630.15 514.21 C 619.55 507.20 606.01 491.51 602.65 482.35 C 599.19 472.91 598.76 470.12 599.30 460.37 C 600.18 444.32 601.77 435.93 606.90 420.29 C 609.57 412.16 612.68 402.12 613.82 398.00 C 617.74 383.81 623.22 373.19 630.98 364.70 C 637.97 357.06 649.67 350.05 678.00 336.56 C 711.95 320.39 726.58 316.00 746.54 316.00 C 757.74 316.00 765.78 317.46 779.00 321.91 C 809.13 332.05 816.47 334.08 829.71 335.96 C 840.81 337.53 856.96 343.52 875.35 352.87 C 894.50 362.60 900.74 367.94 902.86 376.37 C 905.59 387.22 904.06 391.39 885.47 423.50 C 880.38 432.30 873.80 444.43 870.85 450.45 C 864.31 463.84 858.06 470.82 850.35 473.38 C 844.57 475.30 842.08 474.97 834.32 471.24 C 830.69 469.49 827.57 466.81 823.89 462.27 C 818.96 456.19 817.79 455.39 804.57 448.97 C 785.46 439.69 768.09 434.64 755.00 434.56 C 746.03 434.50 745.25 434.67 741.00 437.54 C 738.53 439.21 735.45 442.47 734.17 444.79 C 732.14 448.47 731.99 449.44 732.98 452.45 C 734.16 456.03 739.02 460.94 743.76 463.35 C 746.45 464.72 761.18 468.48 770.00 470.06 C 772.47 470.50 777.20 471.51 780.50 472.30 C 783.80 473.09 791.00 474.71 796.50 475.89 C 814.61 479.77 841.47 489.25 859.41 498.09 C 862.66 499.69 865.93 501.00 866.68 501.00 C 867.43 501.00 871.56 502.77 875.86 504.93 C 881.36 507.69 885.20 510.53 888.86 514.53 C 894.96 521.21 902.02 530.27 904.40 534.50 C 905.34 536.15 907.59 540.02 909.40 543.10 C 916.19 554.60 920.95 572.28 920.98 586.12 C 921.03 609.07 912.78 630.89 896.79 650.10 C 892.94 654.72 888.38 660.23 886.65 662.35 C 882.80 667.06 873.90 675.72 868.50 680.02 C 864.51 683.20 849.96 691.00 848.03 691.00 C 845.84 691.00 825.95 701.22 816.00 707.46 C 810.22 711.08 803.25 714.72 800.50 715.54 C 794.16 717.45 781.23 718.07 768.93 717.04 Z" stroke-linecap="round"></path>
</g>
</g>
</g>

  </svg>